<?xml version="1.0" encoding="UTF-8" standalone="no"?>
<!DOCTYPE svg PUBLIC "-//W3C//DTD SVG 1.1//EN"
 "http://www.w3.org/Graphics/SVG/1.1/DTD/svg11.dtd">
<!-- Generated by graphviz version 12.2.1 (20241206.2353)
 -->
<!-- Title: SchemaCrawler_Diagram Pages: 1 -->
<svg width="1495pt" height="740pt"
 viewBox="0.00 0.00 1494.50 740.12" xmlns="http://www.w3.org/2000/svg" xmlns:xlink="http://www.w3.org/1999/xlink">
<g id="graph0" class="graph" transform="scale(1 1) rotate(0) translate(4 736.12)">
<title>SchemaCrawler_Diagram</title>
<polygon fill="white" stroke="none" points="-4,4 -4,-736.12 1490.5,-736.12 1490.5,4 -4,4"/>
<text text-anchor="start" x="1220.25" y="-54.45" font-family="Helvetica,sans-Serif" font-weight="bold" font-style="italic" font-size="14.00">PresCat Schema ER Diagram</text>
<text text-anchor="start" x="1220.25" y="-32.2" font-family="Helvetica,sans-Serif" font-size="14.00">generated by</text>
<text text-anchor="start" x="1317.25" y="-32.2" font-family="Helvetica,sans-Serif" font-size="14.00">SchemaCrawler 17.3.0</text>
<text text-anchor="start" x="1220.25" y="-10.95" font-family="Helvetica,sans-Serif" font-size="14.00">generated on</text>
<text text-anchor="start" x="1317.25" y="-10.95" font-family="Helvetica,sans-Serif" font-size="14.00">2026&#45;01&#45;21 00:23:53</text>
<polygon fill="none" stroke="#888888" points="1217.25,-4 1217.25,-69.75 1478.5,-69.75 1478.5,-4 1217.25,-4"/>
<!-- ar_internal_metadata_fd77e4f9 -->
<g id="node1" class="node">
<title>ar_internal_metadata_fd77e4f9</title>
<polygon fill="#e9c2f2" stroke="none" points="1118.5,-200.62 1118.5,-221.88 1342.25,-221.88 1342.25,-200.62 1118.5,-200.62"/>
<text text-anchor="start" x="1120.5" y="-207.57" font-family="Helvetica,sans-Serif" font-weight="bold" font-style="italic" font-size="14.00">public.ar_internal_metadata</text>
<polygon fill="#e9c2f2" stroke="none" points="1342.25,-200.62 1342.25,-221.88 1477.5,-221.88 1477.5,-200.62 1342.25,-200.62"/>
<text text-anchor="start" x="1430.5" y="-206.57" font-family="Helvetica,sans-Serif" font-size="14.00">[table]</text>
<text text-anchor="start" x="1120.5" y="-186.32" font-family="Helvetica,sans-Serif" font-weight="bold" font-style="italic" font-size="14.00">key</text>
<text text-anchor="start" x="1269.12" y="-185.32" font-family="Helvetica,sans-Serif" font-size="14.00"> </text>
<text text-anchor="start" x="1344.25" y="-185.32" font-family="Helvetica,sans-Serif" font-size="14.00">varchar not null</text>
<text text-anchor="start" x="1120.5" y="-164.07" font-family="Helvetica,sans-Serif" font-size="14.00">&quot;value&quot;</text>
<text text-anchor="start" x="1269.12" y="-164.07" font-family="Helvetica,sans-Serif" font-size="14.00"> </text>
<text text-anchor="start" x="1344.25" y="-164.07" font-family="Helvetica,sans-Serif" font-size="14.00">varchar</text>
<text text-anchor="start" x="1120.5" y="-142.82" font-family="Helvetica,sans-Serif" font-size="14.00">created_at</text>
<text text-anchor="start" x="1269.12" y="-142.82" font-family="Helvetica,sans-Serif" font-size="14.00"> </text>
<text text-anchor="start" x="1344.25" y="-142.82" font-family="Helvetica,sans-Serif" font-size="14.00">timestamp not null</text>
<text text-anchor="start" x="1120.5" y="-121.58" font-family="Helvetica,sans-Serif" font-size="14.00">updated_at</text>
<text text-anchor="start" x="1269.12" y="-121.58" font-family="Helvetica,sans-Serif" font-size="14.00"> </text>
<text text-anchor="start" x="1344.25" y="-121.58" font-family="Helvetica,sans-Serif" font-size="14.00">timestamp not null</text>
<polygon fill="none" stroke="#888888" points="1117.5,-114.62 1117.5,-222.88 1478.5,-222.88 1478.5,-114.62 1117.5,-114.62"/>
</g>
<!-- moab_records_e6e31a5c -->
<g id="node2" class="node">
<title>moab_records_e6e31a5c</title>
<polygon fill="#e9c2f2" stroke="none" points="573,-705.88 573,-727.12 776,-727.12 776,-705.88 573,-705.88"/>
<text text-anchor="start" x="575" y="-712.83" font-family="Helvetica,sans-Serif" font-weight="bold" font-style="italic" font-size="14.00">public.moab_records</text>
<polygon fill="#e9c2f2" stroke="none" points="776,-705.88 776,-727.12 911.25,-727.12 911.25,-705.88 776,-705.88"/>
<text text-anchor="start" x="864.25" y="-711.83" font-family="Helvetica,sans-Serif" font-size="14.00">[table]</text>
<text text-anchor="start" x="575" y="-691.58" font-family="Helvetica,sans-Serif" font-weight="bold" font-style="italic" font-size="14.00">id</text>
<text text-anchor="start" x="769.5" y="-690.58" font-family="Helvetica,sans-Serif" font-size="14.00"> </text>
<text text-anchor="start" x="778" y="-690.58" font-family="Helvetica,sans-Serif" font-size="14.00">bigserial not null</text>
<text text-anchor="start" x="769.5" y="-669.33" font-family="Helvetica,sans-Serif" font-size="14.00"> </text>
<text text-anchor="start" x="778" y="-669.33" font-family="Helvetica,sans-Serif" font-size="14.00">auto&#45;incremented</text>
<text text-anchor="start" x="575" y="-648.08" font-family="Helvetica,sans-Serif" font-size="14.00">version</text>
<text text-anchor="start" x="769.5" y="-648.08" font-family="Helvetica,sans-Serif" font-size="14.00"> </text>
<text text-anchor="start" x="778" y="-648.08" font-family="Helvetica,sans-Serif" font-size="14.00">int4 not null</text>
<text text-anchor="start" x="575" y="-626.83" font-family="Helvetica,sans-Serif" font-size="14.00">preserved_object_id</text>
<text text-anchor="start" x="769.5" y="-626.83" font-family="Helvetica,sans-Serif" font-size="14.00"> </text>
<text text-anchor="start" x="778" y="-626.83" font-family="Helvetica,sans-Serif" font-size="14.00">int8 not null</text>
<text text-anchor="start" x="575" y="-605.58" font-family="Helvetica,sans-Serif" font-size="14.00">moab_storage_root_id</text>
<text text-anchor="start" x="769.5" y="-605.58" font-family="Helvetica,sans-Serif" font-size="14.00"> </text>
<text text-anchor="start" x="778" y="-605.58" font-family="Helvetica,sans-Serif" font-size="14.00">int8 not null</text>
<text text-anchor="start" x="575" y="-584.33" font-family="Helvetica,sans-Serif" font-size="14.00">created_at</text>
<text text-anchor="start" x="769.5" y="-584.33" font-family="Helvetica,sans-Serif" font-size="14.00"> </text>
<text text-anchor="start" x="778" y="-584.33" font-family="Helvetica,sans-Serif" font-size="14.00">timestamp not null</text>
<text text-anchor="start" x="575" y="-563.08" font-family="Helvetica,sans-Serif" font-size="14.00">updated_at</text>
<text text-anchor="start" x="769.5" y="-563.08" font-family="Helvetica,sans-Serif" font-size="14.00"> </text>
<text text-anchor="start" x="778" y="-563.08" font-family="Helvetica,sans-Serif" font-size="14.00">timestamp not null</text>
<text text-anchor="start" x="575" y="-541.83" font-family="Helvetica,sans-Serif" font-size="14.00">last_moab_validation</text>
<text text-anchor="start" x="769.5" y="-541.83" font-family="Helvetica,sans-Serif" font-size="14.00"> </text>
<text text-anchor="start" x="778" y="-541.83" font-family="Helvetica,sans-Serif" font-size="14.00">timestamp</text>
<text text-anchor="start" x="575" y="-520.58" font-family="Helvetica,sans-Serif" font-size="14.00">last_checksum_validation</text>
<text text-anchor="start" x="769.5" y="-520.58" font-family="Helvetica,sans-Serif" font-size="14.00"> </text>
<text text-anchor="start" x="778" y="-520.58" font-family="Helvetica,sans-Serif" font-size="14.00">timestamp</text>
<text text-anchor="start" x="575" y="-499.32" font-family="Helvetica,sans-Serif" font-size="14.00">size</text>
<text text-anchor="start" x="769.5" y="-499.32" font-family="Helvetica,sans-Serif" font-size="14.00"> </text>
<text text-anchor="start" x="778" y="-499.32" font-family="Helvetica,sans-Serif" font-size="14.00">int8</text>
<text text-anchor="start" x="575" y="-478.07" font-family="Helvetica,sans-Serif" font-size="14.00">status</text>
<text text-anchor="start" x="769.5" y="-478.07" font-family="Helvetica,sans-Serif" font-size="14.00"> </text>
<text text-anchor="start" x="778" y="-478.07" font-family="Helvetica,sans-Serif" font-size="14.00">int4 not null</text>
<text text-anchor="start" x="575" y="-456.82" font-family="Helvetica,sans-Serif" font-size="14.00">last_version_audit</text>
<text text-anchor="start" x="769.5" y="-456.82" font-family="Helvetica,sans-Serif" font-size="14.00"> </text>
<text text-anchor="start" x="778" y="-456.82" font-family="Helvetica,sans-Serif" font-size="14.00">timestamp</text>
<text text-anchor="start" x="575" y="-435.57" font-family="Helvetica,sans-Serif" font-size="14.00">status_details</text>
<text text-anchor="start" x="769.5" y="-435.57" font-family="Helvetica,sans-Serif" font-size="14.00"> </text>
<text text-anchor="start" x="778" y="-435.57" font-family="Helvetica,sans-Serif" font-size="14.00">varchar</text>
<text text-anchor="start" x="575" y="-414.32" font-family="Helvetica,sans-Serif" font-size="14.00">from_moab_storage_root_id</text>
<text text-anchor="start" x="769.5" y="-414.32" font-family="Helvetica,sans-Serif" font-size="14.00"> </text>
<text text-anchor="start" x="778" y="-414.32" font-family="Helvetica,sans-Serif" font-size="14.00">int8</text>
<polygon fill="none" stroke="#888888" points="572,-407.38 572,-728.12 912.25,-728.12 912.25,-407.38 572,-407.38"/>
</g>
<!-- moab_storage_roots_c77b6227 -->
<g id="node3" class="node">
<title>moab_storage_roots_c77b6227</title>
<polygon fill="#e9c2f2" stroke="none" points="9,-601.88 9,-623.12 223.75,-623.12 223.75,-601.88 9,-601.88"/>
<text text-anchor="start" x="11" y="-608.83" font-family="Helvetica,sans-Serif" font-weight="bold" font-style="italic" font-size="14.00">public.moab_storage_roots</text>
<polygon fill="#e9c2f2" stroke="none" points="223.75,-601.88 223.75,-623.12 359,-623.12 359,-601.88 223.75,-601.88"/>
<text text-anchor="start" x="312" y="-607.83" font-family="Helvetica,sans-Serif" font-size="14.00">[table]</text>
<text text-anchor="start" x="11" y="-587.58" font-family="Helvetica,sans-Serif" font-weight="bold" font-style="italic" font-size="14.00">id</text>
<text text-anchor="start" x="172.75" y="-586.58" font-family="Helvetica,sans-Serif" font-size="14.00"> </text>
<text text-anchor="start" x="225.75" y="-586.58" font-family="Helvetica,sans-Serif" font-size="14.00">bigserial not null</text>
<text text-anchor="start" x="172.75" y="-565.33" font-family="Helvetica,sans-Serif" font-size="14.00"> </text>
<text text-anchor="start" x="225.75" y="-565.33" font-family="Helvetica,sans-Serif" font-size="14.00">auto&#45;incremented</text>
<text text-anchor="start" x="11" y="-544.08" font-family="Helvetica,sans-Serif" font-size="14.00">name</text>
<text text-anchor="start" x="172.75" y="-544.08" font-family="Helvetica,sans-Serif" font-size="14.00"> </text>
<text text-anchor="start" x="225.75" y="-544.08" font-family="Helvetica,sans-Serif" font-size="14.00">varchar not null</text>
<text text-anchor="start" x="11" y="-522.83" font-family="Helvetica,sans-Serif" font-size="14.00">created_at</text>
<text text-anchor="start" x="172.75" y="-522.83" font-family="Helvetica,sans-Serif" font-size="14.00"> </text>
<text text-anchor="start" x="225.75" y="-522.83" font-family="Helvetica,sans-Serif" font-size="14.00">timestamp not null</text>
<text text-anchor="start" x="11" y="-501.57" font-family="Helvetica,sans-Serif" font-size="14.00">updated_at</text>
<text text-anchor="start" x="172.75" y="-501.57" font-family="Helvetica,sans-Serif" font-size="14.00"> </text>
<text text-anchor="start" x="225.75" y="-501.57" font-family="Helvetica,sans-Serif" font-size="14.00">timestamp not null</text>
<text text-anchor="start" x="11" y="-480.32" font-family="Helvetica,sans-Serif" font-size="14.00">storage_location</text>
<text text-anchor="start" x="172.75" y="-480.32" font-family="Helvetica,sans-Serif" font-size="14.00"> </text>
<text text-anchor="start" x="225.75" y="-480.32" font-family="Helvetica,sans-Serif" font-size="14.00">varchar not null</text>
<polygon fill="none" stroke="#888888" points="8,-473.38 8,-624.12 360,-624.12 360,-473.38 8,-473.38"/>
</g>
<!-- moab_records_e6e31a5c&#45;&gt;moab_storage_roots_c77b6227 -->
<g id="edge1" class="edge">
<title>moab_records_e6e31a5c:w&#45;&gt;moab_storage_roots_c77b6227:e</title>
<path fill="none" stroke="black" d="M554.04,-425.69C507.41,-450.4 401.01,-535.88 386,-551.5 374.34,-563.63 378.16,-581.67 369.51,-588.5"/>
<polygon fill="black" stroke="black" points="562.32,-422.61 573.26,-423.33 567.31,-420.75 571.37,-419.23 571.37,-419.23 571.37,-419.23 567.31,-420.75 570.12,-414.9 562.32,-422.61"/>
<ellipse fill="none" stroke="black" cx="556.96" cy="-424.6" rx="4" ry="4"/>
<polygon fill="black" stroke="black" points="362.35,-595.77 359.57,-586.17 361.49,-585.61 364.27,-595.22 362.35,-595.77"/>
<polyline fill="none" stroke="black" points="360,-591.25 364.8,-589.86"/>
<polygon fill="black" stroke="black" points="367.15,-594.38 364.37,-584.78 366.29,-584.22 369.07,-593.83 367.15,-594.38"/>
<polyline fill="none" stroke="black" points="364.8,-589.86 369.61,-588.47"/>
<text text-anchor="start" x="386.38" y="-555.45" font-family="Helvetica,sans-Serif" font-size="14.00">fk_rails_a63b632546</text>
</g>
<!-- moab_records_e6e31a5c&#45;&gt;moab_storage_roots_c77b6227 -->
<g id="edge2" class="edge">
<title>moab_records_e6e31a5c:w&#45;&gt;moab_storage_roots_c77b6227:e</title>
<path fill="none" stroke="black" d="M557.16,-606.29C549.67,-601.68 544.91,-594.34 532.25,-591.5 460.91,-575.47 438.55,-589.83 369.99,-591.15"/>
<polygon fill="black" stroke="black" points="562.02,-607.58 570.52,-614.51 567.17,-608.96 571.35,-610.08 571.35,-610.08 571.35,-610.08 567.17,-608.96 572.84,-605.82 562.02,-607.58"/>
<polygon fill="black" stroke="black" points="561.16,-602.18 558.58,-611.84 556.65,-611.33 559.23,-601.66 561.16,-602.18"/>
<polyline fill="none" stroke="black" points="560.84,-607.27 556.01,-605.98"/>
<polygon fill="black" stroke="black" points="361.05,-596.24 360.95,-586.24 362.95,-586.22 363.05,-596.22 361.05,-596.24"/>
<polyline fill="none" stroke="black" points="360,-591.25 365,-591.2"/>
<polygon fill="black" stroke="black" points="366.05,-596.19 365.95,-586.19 367.95,-586.17 368.05,-596.17 366.05,-596.19"/>
<polyline fill="none" stroke="black" points="365,-591.2 370,-591.15"/>
<text text-anchor="start" x="390.88" y="-595.45" font-family="Helvetica,sans-Serif" font-size="14.00">fk_rails_cbdf4a2f53</text>
</g>
<!-- preserved_objects_37017e83 -->
<g id="node4" class="node">
<title>preserved_objects_37017e83</title>
<polygon fill="#e9c2f2" stroke="none" points="16.88,-227.5 16.88,-248.75 215.88,-248.75 215.88,-227.5 16.88,-227.5"/>
<text text-anchor="start" x="18.88" y="-234.45" font-family="Helvetica,sans-Serif" font-weight="bold" font-style="italic" font-size="14.00">public.preserved_objects</text>
<polygon fill="#e9c2f2" stroke="none" points="215.88,-227.5 215.88,-248.75 351.12,-248.75 351.12,-227.5 215.88,-227.5"/>
<text text-anchor="start" x="304.12" y="-233.45" font-family="Helvetica,sans-Serif" font-size="14.00">[table]</text>
<text text-anchor="start" x="18.88" y="-213.2" font-family="Helvetica,sans-Serif" font-weight="bold" font-style="italic" font-size="14.00">id</text>
<text text-anchor="start" x="178" y="-212.2" font-family="Helvetica,sans-Serif" font-size="14.00"> </text>
<text text-anchor="start" x="217.88" y="-212.2" font-family="Helvetica,sans-Serif" font-size="14.00">bigserial not null</text>
<text text-anchor="start" x="178" y="-190.95" font-family="Helvetica,sans-Serif" font-size="14.00"> </text>
<text text-anchor="start" x="217.88" y="-190.95" font-family="Helvetica,sans-Serif" font-size="14.00">auto&#45;incremented</text>
<text text-anchor="start" x="18.88" y="-169.7" font-family="Helvetica,sans-Serif" font-size="14.00">druid</text>
<text text-anchor="start" x="178" y="-169.7" font-family="Helvetica,sans-Serif" font-size="14.00"> </text>
<text text-anchor="start" x="217.88" y="-169.7" font-family="Helvetica,sans-Serif" font-size="14.00">varchar not null</text>
<text text-anchor="start" x="18.88" y="-148.45" font-family="Helvetica,sans-Serif" font-size="14.00">current_version</text>
<text text-anchor="start" x="178" y="-148.45" font-family="Helvetica,sans-Serif" font-size="14.00"> </text>
<text text-anchor="start" x="217.88" y="-148.45" font-family="Helvetica,sans-Serif" font-size="14.00">int4 not null</text>
<text text-anchor="start" x="18.88" y="-127.2" font-family="Helvetica,sans-Serif" font-size="14.00">created_at</text>
<text text-anchor="start" x="178" y="-127.2" font-family="Helvetica,sans-Serif" font-size="14.00"> </text>
<text text-anchor="start" x="217.88" y="-127.2" font-family="Helvetica,sans-Serif" font-size="14.00">timestamp not null</text>
<text text-anchor="start" x="18.88" y="-105.95" font-family="Helvetica,sans-Serif" font-size="14.00">updated_at</text>
<text text-anchor="start" x="178" y="-105.95" font-family="Helvetica,sans-Serif" font-size="14.00"> </text>
<text text-anchor="start" x="217.88" y="-105.95" font-family="Helvetica,sans-Serif" font-size="14.00">timestamp not null</text>
<text text-anchor="start" x="18.88" y="-84.7" font-family="Helvetica,sans-Serif" font-size="14.00">last_archive_audit</text>
<text text-anchor="start" x="178" y="-84.7" font-family="Helvetica,sans-Serif" font-size="14.00"> </text>
<text text-anchor="start" x="217.88" y="-84.7" font-family="Helvetica,sans-Serif" font-size="14.00">timestamp</text>
<polygon fill="none" stroke="#888888" points="15.88,-77.75 15.88,-249.75 352.12,-249.75 352.12,-77.75 15.88,-77.75"/>
</g>
<!-- moab_records_e6e31a5c&#45;&gt;preserved_objects_37017e83 -->
<g id="edge3" class="edge">
<title>moab_records_e6e31a5c:w&#45;&gt;preserved_objects_37017e83:e</title>
<path fill="none" stroke="black" d="M562.41,-631.67C485.11,-634.33 440.58,-667.28 386,-608.75 358.35,-579.1 390.46,-267.18 360.35,-222.25"/>
<polygon fill="black" stroke="black" points="570.91,-626.52 571.09,-636.52 569.09,-636.55 568.91,-626.55 570.91,-626.52"/>
<polyline fill="none" stroke="black" points="572,-631.5 567,-631.59"/>
<polygon fill="black" stroke="black" points="565.91,-626.6 566.09,-636.6 564.09,-636.64 563.91,-626.64 565.91,-626.6"/>
<polyline fill="none" stroke="black" points="567,-631.59 562,-631.67"/>
<polygon fill="black" stroke="black" points="350.23,-221.61 355.7,-213.24 357.37,-214.33 351.9,-222.7 350.23,-221.61"/>
<polyline fill="none" stroke="black" points="352.12,-216.88 356.31,-219.61"/>
<polygon fill="black" stroke="black" points="354.41,-224.34 359.88,-215.97 361.56,-217.07 356.08,-225.44 354.41,-224.34"/>
<polyline fill="none" stroke="black" points="356.31,-219.61 360.49,-222.35"/>
<text text-anchor="start" x="388.25" y="-647.25" font-family="Helvetica,sans-Serif" font-size="14.00">fk_rails_8d7352daf2</text>
</g>
<!-- zipped_moab_versions_45586cfc -->
<g id="node5" class="node">
<title>zipped_moab_versions_45586cfc</title>
<polygon fill="#e9c2f2" stroke="none" points="559.25,-357 559.25,-378.25 789.75,-378.25 789.75,-357 559.25,-357"/>
<text text-anchor="start" x="561.25" y="-363.95" font-family="Helvetica,sans-Serif" font-weight="bold" font-style="italic" font-size="14.00">public.zipped_moab_versions</text>
<polygon fill="#e9c2f2" stroke="none" points="789.75,-357 789.75,-378.25 925,-378.25 925,-357 789.75,-357"/>
<text text-anchor="start" x="878" y="-362.95" font-family="Helvetica,sans-Serif" font-size="14.00">[table]</text>
<text text-anchor="start" x="561.25" y="-342.7" font-family="Helvetica,sans-Serif" font-weight="bold" font-style="italic" font-size="14.00">id</text>
<text text-anchor="start" x="743.25" y="-341.7" font-family="Helvetica,sans-Serif" font-size="14.00"> </text>
<text text-anchor="start" x="791.75" y="-341.7" font-family="Helvetica,sans-Serif" font-size="14.00">bigserial not null</text>
<text text-anchor="start" x="743.25" y="-320.45" font-family="Helvetica,sans-Serif" font-size="14.00"> </text>
<text text-anchor="start" x="791.75" y="-320.45" font-family="Helvetica,sans-Serif" font-size="14.00">auto&#45;incremented</text>
<text text-anchor="start" x="561.25" y="-299.2" font-family="Helvetica,sans-Serif" font-size="14.00">version</text>
<text text-anchor="start" x="743.25" y="-299.2" font-family="Helvetica,sans-Serif" font-size="14.00"> </text>
<text text-anchor="start" x="791.75" y="-299.2" font-family="Helvetica,sans-Serif" font-size="14.00">int4 not null</text>
<text text-anchor="start" x="561.25" y="-277.95" font-family="Helvetica,sans-Serif" font-size="14.00">zip_endpoint_id</text>
<text text-anchor="start" x="743.25" y="-277.95" font-family="Helvetica,sans-Serif" font-size="14.00"> </text>
<text text-anchor="start" x="791.75" y="-277.95" font-family="Helvetica,sans-Serif" font-size="14.00">int8 not null</text>
<text text-anchor="start" x="561.25" y="-256.7" font-family="Helvetica,sans-Serif" font-size="14.00">created_at</text>
<text text-anchor="start" x="743.25" y="-256.7" font-family="Helvetica,sans-Serif" font-size="14.00"> </text>
<text text-anchor="start" x="791.75" y="-256.7" font-family="Helvetica,sans-Serif" font-size="14.00">timestamp not null</text>
<text text-anchor="start" x="561.25" y="-235.45" font-family="Helvetica,sans-Serif" font-size="14.00">updated_at</text>
<text text-anchor="start" x="743.25" y="-235.45" font-family="Helvetica,sans-Serif" font-size="14.00"> </text>
<text text-anchor="start" x="791.75" y="-235.45" font-family="Helvetica,sans-Serif" font-size="14.00">timestamp not null</text>
<text text-anchor="start" x="561.25" y="-214.2" font-family="Helvetica,sans-Serif" font-size="14.00">preserved_object_id</text>
<text text-anchor="start" x="743.25" y="-214.2" font-family="Helvetica,sans-Serif" font-size="14.00"> </text>
<text text-anchor="start" x="791.75" y="-214.2" font-family="Helvetica,sans-Serif" font-size="14.00">int8 not null</text>
<text text-anchor="start" x="561.25" y="-192.95" font-family="Helvetica,sans-Serif" font-size="14.00">status</text>
<text text-anchor="start" x="743.25" y="-192.95" font-family="Helvetica,sans-Serif" font-size="14.00"> </text>
<text text-anchor="start" x="791.75" y="-192.95" font-family="Helvetica,sans-Serif" font-size="14.00">int4 not null</text>
<text text-anchor="start" x="561.25" y="-171.7" font-family="Helvetica,sans-Serif" font-size="14.00">status_updated_at</text>
<text text-anchor="start" x="743.25" y="-171.7" font-family="Helvetica,sans-Serif" font-size="14.00"> </text>
<text text-anchor="start" x="791.75" y="-171.7" font-family="Helvetica,sans-Serif" font-size="14.00">timestamp</text>
<text text-anchor="start" x="561.25" y="-150.45" font-family="Helvetica,sans-Serif" font-size="14.00">zip_parts_count</text>
<text text-anchor="start" x="743.25" y="-150.45" font-family="Helvetica,sans-Serif" font-size="14.00"> </text>
<text text-anchor="start" x="791.75" y="-150.45" font-family="Helvetica,sans-Serif" font-size="14.00">int4</text>
<text text-anchor="start" x="561.25" y="-129.2" font-family="Helvetica,sans-Serif" font-size="14.00">status_details</text>
<text text-anchor="start" x="743.25" y="-129.2" font-family="Helvetica,sans-Serif" font-size="14.00"> </text>
<text text-anchor="start" x="791.75" y="-129.2" font-family="Helvetica,sans-Serif" font-size="14.00">varchar</text>
<polygon fill="none" stroke="#888888" points="558.25,-122.25 558.25,-379.25 926,-379.25 926,-122.25 558.25,-122.25"/>
</g>
<!-- zipped_moab_versions_45586cfc&#45;&gt;preserved_objects_37017e83 -->
<g id="edge4" class="edge">
<title>zipped_moab_versions_45586cfc:w&#45;&gt;preserved_objects_37017e83:e</title>
<path fill="none" stroke="black" d="M542.83,-218.86C466.81,-218.66 440.43,-217.01 361.96,-216.88"/>
<polygon fill="black" stroke="black" points="547.92,-218.86 557.91,-223.37 553.25,-218.87 557.58,-218.87 557.58,-218.87 557.58,-218.87 553.25,-218.87 557.92,-214.37 547.92,-218.86"/>
<polygon fill="black" stroke="black" points="545.7,-213.86 545.69,-223.86 543.69,-223.86 543.7,-213.86 545.7,-213.86"/>
<polyline fill="none" stroke="black" points="546.7,-218.86 541.7,-218.85"/>
<polygon fill="black" stroke="black" points="353.12,-221.88 353.13,-211.88 355.13,-211.88 355.12,-221.88 353.12,-221.88"/>
<polyline fill="none" stroke="black" points="352.12,-216.88 357.12,-216.88"/>
<polygon fill="black" stroke="black" points="358.12,-221.88 358.13,-211.88 360.13,-211.88 360.12,-221.88 358.12,-221.88"/>
<polyline fill="none" stroke="black" points="357.12,-216.88 362.12,-216.88"/>
<text text-anchor="start" x="386" y="-222.75" font-family="Helvetica,sans-Serif" font-size="14.00">fk_rails_b69969d028</text>
</g>
<!-- zip_endpoints_20b2c0f6 -->
<g id="node7" class="node">
<title>zip_endpoints_20b2c0f6</title>
<polygon fill="#e9c2f2" stroke="none" points="34.88,-425.5 34.88,-446.75 197.88,-446.75 197.88,-425.5 34.88,-425.5"/>
<text text-anchor="start" x="36.88" y="-432.45" font-family="Helvetica,sans-Serif" font-weight="bold" font-style="italic" font-size="14.00">public.zip_endpoints</text>
<polygon fill="#e9c2f2" stroke="none" points="197.88,-425.5 197.88,-446.75 333.12,-446.75 333.12,-425.5 197.88,-425.5"/>
<text text-anchor="start" x="286.12" y="-431.45" font-family="Helvetica,sans-Serif" font-size="14.00">[table]</text>
<text text-anchor="start" x="36.88" y="-411.2" font-family="Helvetica,sans-Serif" font-weight="bold" font-style="italic" font-size="14.00">id</text>
<text text-anchor="start" x="172.75" y="-410.2" font-family="Helvetica,sans-Serif" font-size="14.00"> </text>
<text text-anchor="start" x="199.88" y="-410.2" font-family="Helvetica,sans-Serif" font-size="14.00">bigserial not null</text>
<text text-anchor="start" x="172.75" y="-388.95" font-family="Helvetica,sans-Serif" font-size="14.00"> </text>
<text text-anchor="start" x="199.88" y="-388.95" font-family="Helvetica,sans-Serif" font-size="14.00">auto&#45;incremented</text>
<text text-anchor="start" x="36.88" y="-367.7" font-family="Helvetica,sans-Serif" font-size="14.00">endpoint_name</text>
<text text-anchor="start" x="172.75" y="-367.7" font-family="Helvetica,sans-Serif" font-size="14.00"> </text>
<text text-anchor="start" x="199.88" y="-367.7" font-family="Helvetica,sans-Serif" font-size="14.00">varchar not null</text>
<text text-anchor="start" x="36.88" y="-346.45" font-family="Helvetica,sans-Serif" font-size="14.00">endpoint_node</text>
<text text-anchor="start" x="172.75" y="-346.45" font-family="Helvetica,sans-Serif" font-size="14.00"> </text>
<text text-anchor="start" x="199.88" y="-346.45" font-family="Helvetica,sans-Serif" font-size="14.00">varchar</text>
<text text-anchor="start" x="36.88" y="-325.2" font-family="Helvetica,sans-Serif" font-size="14.00">storage_location</text>
<text text-anchor="start" x="172.75" y="-325.2" font-family="Helvetica,sans-Serif" font-size="14.00"> </text>
<text text-anchor="start" x="199.88" y="-325.2" font-family="Helvetica,sans-Serif" font-size="14.00">varchar</text>
<text text-anchor="start" x="36.88" y="-303.95" font-family="Helvetica,sans-Serif" font-size="14.00">created_at</text>
<text text-anchor="start" x="172.75" y="-303.95" font-family="Helvetica,sans-Serif" font-size="14.00"> </text>
<text text-anchor="start" x="199.88" y="-303.95" font-family="Helvetica,sans-Serif" font-size="14.00">timestamp not null</text>
<text text-anchor="start" x="36.88" y="-282.7" font-family="Helvetica,sans-Serif" font-size="14.00">updated_at</text>
<text text-anchor="start" x="172.75" y="-282.7" font-family="Helvetica,sans-Serif" font-size="14.00"> </text>
<text text-anchor="start" x="199.88" y="-282.7" font-family="Helvetica,sans-Serif" font-size="14.00">timestamp not null</text>
<polygon fill="none" stroke="#888888" points="33.88,-275.75 33.88,-447.75 334.12,-447.75 334.12,-275.75 33.88,-275.75"/>
</g>
<!-- zipped_moab_versions_45586cfc&#45;&gt;zip_endpoints_20b2c0f6 -->
<g id="edge5" class="edge">
<title>zipped_moab_versions_45586cfc:w&#45;&gt;zip_endpoints_20b2c0f6:e</title>
<path fill="none" stroke="black" d="M543.08,-283.44C446.02,-294.15 444.48,-407.69 343.85,-414.55"/>
<polygon fill="black" stroke="black" points="547.93,-283.18 558.16,-287.14 553.26,-282.89 557.58,-282.66 557.58,-282.66 557.58,-282.66 553.26,-282.89 557.68,-278.15 547.93,-283.18"/>
<polygon fill="black" stroke="black" points="545.45,-278.3 545.98,-288.29 543.98,-288.39 543.45,-278.41 545.45,-278.3"/>
<polyline fill="none" stroke="black" points="546.71,-283.24 541.72,-283.51"/>
<polygon fill="black" stroke="black" points="335.29,-419.84 334.96,-409.84 336.96,-409.78 337.29,-419.77 335.29,-419.84"/>
<polyline fill="none" stroke="black" points="334.12,-414.88 339.12,-414.71"/>
<polygon fill="black" stroke="black" points="340.29,-419.67 339.95,-409.68 341.95,-409.61 342.29,-419.61 340.29,-419.67"/>
<polyline fill="none" stroke="black" points="339.12,-414.71 344.12,-414.54"/>
<text text-anchor="start" x="389" y="-407.51" font-family="Helvetica,sans-Serif" font-size="14.00">fk_rails_839a7aab9f</text>
</g>
<!-- schema_migrations_99dc56d9 -->
<g id="node6" class="node">
<title>schema_migrations_99dc56d9</title>
<polygon fill="#e9c2f2" stroke="none" points="1138,-490.75 1138,-512 1344.5,-512 1344.5,-490.75 1138,-490.75"/>
<text text-anchor="start" x="1140" y="-497.7" font-family="Helvetica,sans-Serif" font-weight="bold" font-style="italic" font-size="14.00">public.schema_migrations</text>
<polygon fill="#e9c2f2" stroke="none" points="1344.5,-490.75 1344.5,-512 1458,-512 1458,-490.75 1344.5,-490.75"/>
<text text-anchor="start" x="1411" y="-496.7" font-family="Helvetica,sans-Serif" font-size="14.00">[table]</text>
<text text-anchor="start" x="1140" y="-476.45" font-family="Helvetica,sans-Serif" font-weight="bold" font-style="italic" font-size="14.00">version</text>
<text text-anchor="start" x="1269.88" y="-475.45" font-family="Helvetica,sans-Serif" font-size="14.00"> </text>
<text text-anchor="start" x="1346.5" y="-475.45" font-family="Helvetica,sans-Serif" font-size="14.00">varchar not null</text>
<polygon fill="none" stroke="#888888" points="1137,-468.5 1137,-513 1459,-513 1459,-468.5 1137,-468.5"/>
</g>
<!-- zip_parts_31fc758 -->
<g id="node8" class="node">
<title>zip_parts_31fc758</title>
<polygon fill="#e9c2f2" stroke="none" points="1139.38,-420.12 1139.38,-441.38 1321.38,-441.38 1321.38,-420.12 1139.38,-420.12"/>
<text text-anchor="start" x="1141.38" y="-427.07" font-family="Helvetica,sans-Serif" font-weight="bold" font-style="italic" font-size="14.00">public.zip_parts</text>
<polygon fill="#e9c2f2" stroke="none" points="1321.38,-420.12 1321.38,-441.38 1456.62,-441.38 1456.62,-420.12 1321.38,-420.12"/>
<text text-anchor="start" x="1409.62" y="-426.07" font-family="Helvetica,sans-Serif" font-size="14.00">[table]</text>
<text text-anchor="start" x="1141.38" y="-405.82" font-family="Helvetica,sans-Serif" font-weight="bold" font-style="italic" font-size="14.00">id</text>
<text text-anchor="start" x="1314.88" y="-404.82" font-family="Helvetica,sans-Serif" font-size="14.00"> </text>
<text text-anchor="start" x="1323.38" y="-404.82" font-family="Helvetica,sans-Serif" font-size="14.00">bigserial not null</text>
<text text-anchor="start" x="1314.88" y="-383.57" font-family="Helvetica,sans-Serif" font-size="14.00"> </text>
<text text-anchor="start" x="1323.38" y="-383.57" font-family="Helvetica,sans-Serif" font-size="14.00">auto&#45;incremented</text>
<text text-anchor="start" x="1141.38" y="-362.32" font-family="Helvetica,sans-Serif" font-size="14.00">size</text>
<text text-anchor="start" x="1314.88" y="-362.32" font-family="Helvetica,sans-Serif" font-size="14.00"> </text>
<text text-anchor="start" x="1323.38" y="-362.32" font-family="Helvetica,sans-Serif" font-size="14.00">int8</text>
<text text-anchor="start" x="1141.38" y="-341.07" font-family="Helvetica,sans-Serif" font-size="14.00">zipped_moab_version_id</text>
<text text-anchor="start" x="1314.88" y="-341.07" font-family="Helvetica,sans-Serif" font-size="14.00"> </text>
<text text-anchor="start" x="1323.38" y="-341.07" font-family="Helvetica,sans-Serif" font-size="14.00">int8 not null</text>
<text text-anchor="start" x="1141.38" y="-319.82" font-family="Helvetica,sans-Serif" font-size="14.00">created_at</text>
<text text-anchor="start" x="1314.88" y="-319.82" font-family="Helvetica,sans-Serif" font-size="14.00"> </text>
<text text-anchor="start" x="1323.38" y="-319.82" font-family="Helvetica,sans-Serif" font-size="14.00">timestamp not null</text>
<text text-anchor="start" x="1141.38" y="-298.57" font-family="Helvetica,sans-Serif" font-size="14.00">updated_at</text>
<text text-anchor="start" x="1314.88" y="-298.57" font-family="Helvetica,sans-Serif" font-size="14.00"> </text>
<text text-anchor="start" x="1323.38" y="-298.57" font-family="Helvetica,sans-Serif" font-size="14.00">timestamp not null</text>
<text text-anchor="start" x="1141.38" y="-277.32" font-family="Helvetica,sans-Serif" font-size="14.00">md5</text>
<text text-anchor="start" x="1314.88" y="-277.32" font-family="Helvetica,sans-Serif" font-size="14.00"> </text>
<text text-anchor="start" x="1323.38" y="-277.32" font-family="Helvetica,sans-Serif" font-size="14.00">varchar not null</text>
<text text-anchor="start" x="1141.38" y="-256.07" font-family="Helvetica,sans-Serif" font-size="14.00">suffix</text>
<text text-anchor="start" x="1314.88" y="-256.07" font-family="Helvetica,sans-Serif" font-size="14.00"> </text>
<text text-anchor="start" x="1323.38" y="-256.07" font-family="Helvetica,sans-Serif" font-size="14.00">varchar not null</text>
<polygon fill="none" stroke="#888888" points="1138.38,-249.12 1138.38,-442.38 1457.62,-442.38 1457.62,-249.12 1138.38,-249.12"/>
</g>
<!-- zip_parts_31fc758&#45;&gt;zipped_moab_versions_45586cfc -->
<g id="edge6" class="edge">
<title>zip_parts_31fc758:w&#45;&gt;zipped_moab_versions_45586cfc:e</title>
<path fill="none" stroke="black" d="M1122.99,-345.76C1044.13,-345.82 1017.05,-346.33 935.66,-346.37"/>
<polygon fill="black" stroke="black" points="1128.04,-345.75 1138.04,-350.25 1133.38,-345.75 1137.71,-345.75 1137.71,-345.75 1137.71,-345.75 1133.38,-345.75 1138.04,-341.25 1128.04,-345.75"/>
<polygon fill="black" stroke="black" points="1125.82,-340.75 1125.82,-350.75 1123.82,-350.76 1123.82,-340.76 1125.82,-340.75"/>
<polyline fill="none" stroke="black" points="1126.82,-345.75 1121.82,-345.76"/>
<polygon fill="black" stroke="black" points="927,-351.37 927,-341.37 929,-341.37 929,-351.37 927,-351.37"/>
<polyline fill="none" stroke="black" points="926,-346.38 931,-346.37"/>
<polygon fill="black" stroke="black" points="932,-351.37 932,-341.37 934,-341.37 934,-351.37 932,-351.37"/>
<polyline fill="none" stroke="black" points="931,-346.37 936,-346.37"/>
<text text-anchor="start" x="952" y="-350.31" font-family="Helvetica,sans-Serif" font-size="14.00">fk_rails_5f6b3c79c3</text>
</g>
</g>
</svg>
