<?xml version="1.0" encoding="UTF-8" standalone="no"?>
<!DOCTYPE svg PUBLIC "-//W3C//DTD SVG 1.1//EN"
 "http://www.w3.org/Graphics/SVG/1.1/DTD/svg11.dtd">
<!-- Generated by graphviz version 7.0.4 (20221203.1631)
 -->
<!-- Title: SchemaCrawler_Diagram Pages: 1 -->
<svg width="1124pt" height="750pt"
 viewBox="0.00 0.00 1124.00 750.00" xmlns="http://www.w3.org/2000/svg" xmlns:xlink="http://www.w3.org/1999/xlink">
<g id="graph0" class="graph" transform="scale(1 1) rotate(0) translate(4 746)">
<title>SchemaCrawler_Diagram</title>
<polygon fill="white" stroke="none" points="-4,4 -4,-746 1120,-746 1120,4 -4,4"/>
<text text-anchor="start" x="839" y="-49.3" font-family="Helvetica,sans-Serif" font-weight="bold" font-style="italic" font-size="14.00">PresCat Schema ER Diagram</text>
<text text-anchor="start" x="839" y="-29.3" font-family="Helvetica,sans-Serif" font-size="14.00">generated by</text>
<text text-anchor="start" x="937" y="-29.3" font-family="Helvetica,sans-Serif" font-size="14.00">SchemaCrawler 16.19.5</text>
<text text-anchor="start" x="839" y="-10.3" font-family="Helvetica,sans-Serif" font-size="14.00">generated on</text>
<text text-anchor="start" x="937" y="-10.3" font-family="Helvetica,sans-Serif" font-size="14.00">2023&#45;01&#45;10 15:35:15</text>
<polygon fill="none" stroke="#888888" points="836,-4 836,-63 1108,-63 1108,-4 836,-4"/>
<!-- ar_internal_metadata_fd77e4f9 -->
<g id="node1" class="node">
<title>ar_internal_metadata_fd77e4f9</title>
<polygon fill="#e9c2f2" stroke="none" points="790,-147.5 790,-166.5 963,-166.5 963,-147.5 790,-147.5"/>
<text text-anchor="start" x="792" y="-154.3" font-family="Helvetica,sans-Serif" font-weight="bold" font-style="italic" font-size="14.00">ar_internal_metadata</text>
<polygon fill="#e9c2f2" stroke="none" points="963,-147.5 963,-166.5 1099,-166.5 1099,-147.5 963,-147.5"/>
<text text-anchor="start" x="1051" y="-153.3" font-family="Helvetica,sans-Serif" font-size="14.00">[table]</text>
<text text-anchor="start" x="792" y="-135.3" font-family="Helvetica,sans-Serif" font-weight="bold" font-style="italic" font-size="14.00">key</text>
<text text-anchor="start" x="915" y="-134.3" font-family="Helvetica,sans-Serif" font-size="14.00"> </text>
<text text-anchor="start" x="965" y="-134.3" font-family="Helvetica,sans-Serif" font-size="14.00">varchar not null</text>
<text text-anchor="start" x="792" y="-115.3" font-family="Helvetica,sans-Serif" font-size="14.00">&quot;value&quot;</text>
<text text-anchor="start" x="915" y="-115.3" font-family="Helvetica,sans-Serif" font-size="14.00"> </text>
<text text-anchor="start" x="965" y="-115.3" font-family="Helvetica,sans-Serif" font-size="14.00">varchar</text>
<text text-anchor="start" x="792" y="-96.3" font-family="Helvetica,sans-Serif" font-size="14.00">created_at</text>
<text text-anchor="start" x="915" y="-96.3" font-family="Helvetica,sans-Serif" font-size="14.00"> </text>
<text text-anchor="start" x="965" y="-96.3" font-family="Helvetica,sans-Serif" font-size="14.00">timestamp not null</text>
<text text-anchor="start" x="792" y="-77.3" font-family="Helvetica,sans-Serif" font-size="14.00">updated_at</text>
<text text-anchor="start" x="915" y="-77.3" font-family="Helvetica,sans-Serif" font-size="14.00"> </text>
<text text-anchor="start" x="965" y="-77.3" font-family="Helvetica,sans-Serif" font-size="14.00">timestamp not null</text>
<polygon fill="none" stroke="#888888" points="788.5,-71 788.5,-168 1099.5,-168 1099.5,-71 788.5,-71"/>
</g>
<!-- moab_records_e6e31a5c -->
<g id="node2" class="node">
<title>moab_records_e6e31a5c</title>
<polygon fill="#e9c2f2" stroke="none" points="387,-717.5 387,-736.5 591,-736.5 591,-717.5 387,-717.5"/>
<text text-anchor="start" x="389" y="-724.3" font-family="Helvetica,sans-Serif" font-weight="bold" font-style="italic" font-size="14.00">moab_records</text>
<polygon fill="#e9c2f2" stroke="none" points="591,-717.5 591,-736.5 727,-736.5 727,-717.5 591,-717.5"/>
<text text-anchor="start" x="679" y="-723.3" font-family="Helvetica,sans-Serif" font-size="14.00">[table]</text>
<text text-anchor="start" x="389" y="-705.3" font-family="Helvetica,sans-Serif" font-weight="bold" font-style="italic" font-size="14.00">id</text>
<text text-anchor="start" x="584" y="-704.3" font-family="Helvetica,sans-Serif" font-size="14.00"> </text>
<text text-anchor="start" x="593" y="-704.3" font-family="Helvetica,sans-Serif" font-size="14.00">bigserial not null</text>
<text text-anchor="start" x="584" y="-685.3" font-family="Helvetica,sans-Serif" font-size="14.00"> </text>
<text text-anchor="start" x="593" y="-685.3" font-family="Helvetica,sans-Serif" font-size="14.00">auto&#45;incremented</text>
<text text-anchor="start" x="389" y="-666.3" font-family="Helvetica,sans-Serif" font-size="14.00">version</text>
<text text-anchor="start" x="584" y="-666.3" font-family="Helvetica,sans-Serif" font-size="14.00"> </text>
<text text-anchor="start" x="593" y="-666.3" font-family="Helvetica,sans-Serif" font-size="14.00">int4 not null</text>
<text text-anchor="start" x="389" y="-647.3" font-family="Helvetica,sans-Serif" font-size="14.00">preserved_object_id</text>
<text text-anchor="start" x="584" y="-647.3" font-family="Helvetica,sans-Serif" font-size="14.00"> </text>
<text text-anchor="start" x="593" y="-647.3" font-family="Helvetica,sans-Serif" font-size="14.00">int8 not null</text>
<text text-anchor="start" x="389" y="-628.3" font-family="Helvetica,sans-Serif" font-size="14.00">moab_storage_root_id</text>
<text text-anchor="start" x="584" y="-628.3" font-family="Helvetica,sans-Serif" font-size="14.00"> </text>
<text text-anchor="start" x="593" y="-628.3" font-family="Helvetica,sans-Serif" font-size="14.00">int8 not null</text>
<text text-anchor="start" x="389" y="-609.3" font-family="Helvetica,sans-Serif" font-size="14.00">created_at</text>
<text text-anchor="start" x="584" y="-609.3" font-family="Helvetica,sans-Serif" font-size="14.00"> </text>
<text text-anchor="start" x="593" y="-609.3" font-family="Helvetica,sans-Serif" font-size="14.00">timestamp not null</text>
<text text-anchor="start" x="389" y="-590.3" font-family="Helvetica,sans-Serif" font-size="14.00">updated_at</text>
<text text-anchor="start" x="584" y="-590.3" font-family="Helvetica,sans-Serif" font-size="14.00"> </text>
<text text-anchor="start" x="593" y="-590.3" font-family="Helvetica,sans-Serif" font-size="14.00">timestamp not null</text>
<text text-anchor="start" x="389" y="-571.3" font-family="Helvetica,sans-Serif" font-size="14.00">last_moab_validation</text>
<text text-anchor="start" x="584" y="-571.3" font-family="Helvetica,sans-Serif" font-size="14.00"> </text>
<text text-anchor="start" x="593" y="-571.3" font-family="Helvetica,sans-Serif" font-size="14.00">timestamp</text>
<text text-anchor="start" x="389" y="-552.3" font-family="Helvetica,sans-Serif" font-size="14.00">last_checksum_validation</text>
<text text-anchor="start" x="584" y="-552.3" font-family="Helvetica,sans-Serif" font-size="14.00"> </text>
<text text-anchor="start" x="593" y="-552.3" font-family="Helvetica,sans-Serif" font-size="14.00">timestamp</text>
<text text-anchor="start" x="389" y="-533.3" font-family="Helvetica,sans-Serif" font-size="14.00">size</text>
<text text-anchor="start" x="584" y="-533.3" font-family="Helvetica,sans-Serif" font-size="14.00"> </text>
<text text-anchor="start" x="593" y="-533.3" font-family="Helvetica,sans-Serif" font-size="14.00">int8</text>
<text text-anchor="start" x="389" y="-514.3" font-family="Helvetica,sans-Serif" font-size="14.00">status</text>
<text text-anchor="start" x="584" y="-514.3" font-family="Helvetica,sans-Serif" font-size="14.00"> </text>
<text text-anchor="start" x="593" y="-514.3" font-family="Helvetica,sans-Serif" font-size="14.00">int4 not null</text>
<text text-anchor="start" x="389" y="-495.3" font-family="Helvetica,sans-Serif" font-size="14.00">last_version_audit</text>
<text text-anchor="start" x="584" y="-495.3" font-family="Helvetica,sans-Serif" font-size="14.00"> </text>
<text text-anchor="start" x="593" y="-495.3" font-family="Helvetica,sans-Serif" font-size="14.00">timestamp</text>
<text text-anchor="start" x="389" y="-476.3" font-family="Helvetica,sans-Serif" font-size="14.00">status_details</text>
<text text-anchor="start" x="584" y="-476.3" font-family="Helvetica,sans-Serif" font-size="14.00"> </text>
<text text-anchor="start" x="593" y="-476.3" font-family="Helvetica,sans-Serif" font-size="14.00">varchar</text>
<text text-anchor="start" x="389" y="-457.3" font-family="Helvetica,sans-Serif" font-size="14.00">from_moab_storage_root_id</text>
<text text-anchor="start" x="584" y="-457.3" font-family="Helvetica,sans-Serif" font-size="14.00"> </text>
<text text-anchor="start" x="593" y="-457.3" font-family="Helvetica,sans-Serif" font-size="14.00">int8</text>
<polygon fill="none" stroke="#888888" points="386,-451 386,-738 728,-738 728,-451 386,-451"/>
</g>
<!-- moab_storage_roots_c77b6227 -->
<g id="node3" class="node">
<title>moab_storage_roots_c77b6227</title>
<polygon fill="#e9c2f2" stroke="none" points="21,-469.5 21,-488.5 185,-488.5 185,-469.5 21,-469.5"/>
<text text-anchor="start" x="23" y="-476.3" font-family="Helvetica,sans-Serif" font-weight="bold" font-style="italic" font-size="14.00">moab_storage_roots</text>
<polygon fill="#e9c2f2" stroke="none" points="185,-469.5 185,-488.5 321,-488.5 321,-469.5 185,-469.5"/>
<text text-anchor="start" x="273" y="-475.3" font-family="Helvetica,sans-Serif" font-size="14.00">[table]</text>
<text text-anchor="start" x="23" y="-457.3" font-family="Helvetica,sans-Serif" font-weight="bold" font-style="italic" font-size="14.00">id</text>
<text text-anchor="start" x="159" y="-456.3" font-family="Helvetica,sans-Serif" font-size="14.00"> </text>
<text text-anchor="start" x="187" y="-456.3" font-family="Helvetica,sans-Serif" font-size="14.00">bigserial not null</text>
<text text-anchor="start" x="159" y="-437.3" font-family="Helvetica,sans-Serif" font-size="14.00"> </text>
<text text-anchor="start" x="187" y="-437.3" font-family="Helvetica,sans-Serif" font-size="14.00">auto&#45;incremented</text>
<text text-anchor="start" x="23" y="-418.3" font-family="Helvetica,sans-Serif" font-size="14.00">name</text>
<text text-anchor="start" x="159" y="-418.3" font-family="Helvetica,sans-Serif" font-size="14.00"> </text>
<text text-anchor="start" x="187" y="-418.3" font-family="Helvetica,sans-Serif" font-size="14.00">varchar not null</text>
<text text-anchor="start" x="23" y="-399.3" font-family="Helvetica,sans-Serif" font-size="14.00">created_at</text>
<text text-anchor="start" x="159" y="-399.3" font-family="Helvetica,sans-Serif" font-size="14.00"> </text>
<text text-anchor="start" x="187" y="-399.3" font-family="Helvetica,sans-Serif" font-size="14.00">timestamp not null</text>
<text text-anchor="start" x="23" y="-380.3" font-family="Helvetica,sans-Serif" font-size="14.00">updated_at</text>
<text text-anchor="start" x="159" y="-380.3" font-family="Helvetica,sans-Serif" font-size="14.00"> </text>
<text text-anchor="start" x="187" y="-380.3" font-family="Helvetica,sans-Serif" font-size="14.00">timestamp not null</text>
<text text-anchor="start" x="23" y="-361.3" font-family="Helvetica,sans-Serif" font-size="14.00">storage_location</text>
<text text-anchor="start" x="159" y="-361.3" font-family="Helvetica,sans-Serif" font-size="14.00"> </text>
<text text-anchor="start" x="187" y="-361.3" font-family="Helvetica,sans-Serif" font-size="14.00">varchar not null</text>
<polygon fill="none" stroke="#888888" points="20,-355 20,-490 322,-490 322,-355 20,-355"/>
</g>
<!-- moab_records_e6e31a5c&#45;&gt;moab_storage_roots_c77b6227 -->
<g id="edge1" class="edge">
<title>moab_records_e6e31a5c:w&#45;&gt;moab_storage_roots_c77b6227:e</title>
<path fill="none" stroke="black" d="M367.05,-460.5C354.81,-460.5 346.27,-460.5 331.84,-460.5"/>
<polygon fill="black" stroke="black" points="376,-460.5 386,-465 381,-460.5 386,-460.5 386,-460.5 386,-460.5 381,-460.5 386,-456 376,-460.5 376,-460.5"/>
<ellipse fill="none" stroke="black" cx="371.5" cy="-460.5" rx="4" ry="4"/>
<polygon fill="black" stroke="black" points="323,-465.5 323,-455.5 325,-455.5 325,-465.5 323,-465.5"/>
<polyline fill="none" stroke="black" points="322,-460.5 327,-460.5"/>
<polygon fill="black" stroke="black" points="328,-465.5 328,-455.5 330,-455.5 330,-465.5 328,-465.5"/>
<polyline fill="none" stroke="black" points="327,-460.5 332,-460.5"/>
</g>
<!-- moab_records_e6e31a5c&#45;&gt;moab_storage_roots_c77b6227 -->
<g id="edge2" class="edge">
<title>moab_records_e6e31a5c:w&#45;&gt;moab_storage_roots_c77b6227:e</title>
<path fill="none" stroke="black" d="M367.53,-628.25C323.68,-603.06 388.93,-474.02 331.8,-461.48"/>
<polygon fill="black" stroke="black" points="376.25,-630.26 384.99,-636.89 381.13,-631.38 386,-632.5 386,-632.5 386,-632.5 381.13,-631.38 387.01,-628.11 376.25,-630.26 376.25,-630.26"/>
<ellipse fill="none" stroke="black" cx="371.87" cy="-629.25" rx="4" ry="4"/>
<polygon fill="black" stroke="black" points="322.5,-465.57 323.49,-455.62 325.48,-455.82 324.49,-465.77 322.5,-465.57"/>
<polyline fill="none" stroke="black" points="322,-460.5 326.98,-461"/>
<polygon fill="black" stroke="black" points="327.47,-466.07 328.47,-456.12 330.46,-456.32 329.46,-466.27 327.47,-466.07"/>
<polyline fill="none" stroke="black" points="326.98,-461 331.95,-461.5"/>
</g>
<!-- preserved_objects_37017e83 -->
<g id="node4" class="node">
<title>preserved_objects_37017e83</title>
<polygon fill="#e9c2f2" stroke="none" points="9,-668.5 9,-687.5 197,-687.5 197,-668.5 9,-668.5"/>
<text text-anchor="start" x="11" y="-675.3" font-family="Helvetica,sans-Serif" font-weight="bold" font-style="italic" font-size="14.00">preserved_objects</text>
<polygon fill="#e9c2f2" stroke="none" points="197,-668.5 197,-687.5 333,-687.5 333,-668.5 197,-668.5"/>
<text text-anchor="start" x="285" y="-674.3" font-family="Helvetica,sans-Serif" font-size="14.00">[table]</text>
<text text-anchor="start" x="11" y="-656.3" font-family="Helvetica,sans-Serif" font-weight="bold" font-style="italic" font-size="14.00">id</text>
<text text-anchor="start" x="190" y="-655.3" font-family="Helvetica,sans-Serif" font-size="14.00"> </text>
<text text-anchor="start" x="199" y="-655.3" font-family="Helvetica,sans-Serif" font-size="14.00">bigserial not null</text>
<text text-anchor="start" x="190" y="-636.3" font-family="Helvetica,sans-Serif" font-size="14.00"> </text>
<text text-anchor="start" x="199" y="-636.3" font-family="Helvetica,sans-Serif" font-size="14.00">auto&#45;incremented</text>
<text text-anchor="start" x="11" y="-617.3" font-family="Helvetica,sans-Serif" font-size="14.00">druid</text>
<text text-anchor="start" x="190" y="-617.3" font-family="Helvetica,sans-Serif" font-size="14.00"> </text>
<text text-anchor="start" x="199" y="-617.3" font-family="Helvetica,sans-Serif" font-size="14.00">varchar not null</text>
<text text-anchor="start" x="11" y="-598.3" font-family="Helvetica,sans-Serif" font-size="14.00">current_version</text>
<text text-anchor="start" x="190" y="-598.3" font-family="Helvetica,sans-Serif" font-size="14.00"> </text>
<text text-anchor="start" x="199" y="-598.3" font-family="Helvetica,sans-Serif" font-size="14.00">int4 not null</text>
<text text-anchor="start" x="11" y="-579.3" font-family="Helvetica,sans-Serif" font-size="14.00">created_at</text>
<text text-anchor="start" x="190" y="-579.3" font-family="Helvetica,sans-Serif" font-size="14.00"> </text>
<text text-anchor="start" x="199" y="-579.3" font-family="Helvetica,sans-Serif" font-size="14.00">timestamp not null</text>
<text text-anchor="start" x="11" y="-560.3" font-family="Helvetica,sans-Serif" font-size="14.00">updated_at</text>
<text text-anchor="start" x="190" y="-560.3" font-family="Helvetica,sans-Serif" font-size="14.00"> </text>
<text text-anchor="start" x="199" y="-560.3" font-family="Helvetica,sans-Serif" font-size="14.00">timestamp not null</text>
<text text-anchor="start" x="11" y="-541.3" font-family="Helvetica,sans-Serif" font-size="14.00">robot_versioning_allowed</text>
<text text-anchor="start" x="190" y="-541.3" font-family="Helvetica,sans-Serif" font-size="14.00"> </text>
<text text-anchor="start" x="199" y="-541.3" font-family="Helvetica,sans-Serif" font-size="14.00">bool not null</text>
<text text-anchor="start" x="11" y="-522.3" font-family="Helvetica,sans-Serif" font-size="14.00">last_archive_audit</text>
<text text-anchor="start" x="190" y="-522.3" font-family="Helvetica,sans-Serif" font-size="14.00"> </text>
<text text-anchor="start" x="199" y="-522.3" font-family="Helvetica,sans-Serif" font-size="14.00">timestamp</text>
<polygon fill="none" stroke="#888888" points="8,-516 8,-689 334,-689 334,-516 8,-516"/>
</g>
<!-- moab_records_e6e31a5c&#45;&gt;preserved_objects_37017e83 -->
<g id="edge3" class="edge">
<title>moab_records_e6e31a5c:w&#45;&gt;preserved_objects_37017e83:e</title>
<path fill="none" stroke="black" d="M372.08,-652.61C361.79,-654.36 355.09,-657.7 343.73,-658.98"/>
<polygon fill="black" stroke="black" points="384.6,-646.6 385.4,-656.56 383.41,-656.72 382.61,-646.75 384.6,-646.6"/>
<polyline fill="none" stroke="black" points="386,-651.5 381.02,-651.9"/>
<ellipse fill="none" stroke="black" cx="376.53" cy="-652.26" rx="4" ry="4"/>
<polygon fill="black" stroke="black" points="335.27,-664.44 334.73,-654.45 336.73,-654.35 337.26,-664.33 335.27,-664.44"/>
<polyline fill="none" stroke="black" points="334,-659.5 338.99,-659.23"/>
<polygon fill="black" stroke="black" points="340.26,-664.17 339.72,-654.19 341.72,-654.08 342.26,-664.07 340.26,-664.17"/>
<polyline fill="none" stroke="black" points="338.99,-659.23 343.99,-658.97"/>
</g>
<!-- zipped_moab_versions_45586cfc -->
<g id="node5" class="node">
<title>zipped_moab_versions_45586cfc</title>
<polygon fill="#e9c2f2" stroke="none" points="400,-385.5 400,-404.5 579,-404.5 579,-385.5 400,-385.5"/>
<text text-anchor="start" x="402" y="-392.3" font-family="Helvetica,sans-Serif" font-weight="bold" font-style="italic" font-size="14.00">zipped_moab_versions</text>
<polygon fill="#e9c2f2" stroke="none" points="579,-385.5 579,-404.5 715,-404.5 715,-385.5 579,-385.5"/>
<text text-anchor="start" x="667" y="-391.3" font-family="Helvetica,sans-Serif" font-size="14.00">[table]</text>
<text text-anchor="start" x="402" y="-373.3" font-family="Helvetica,sans-Serif" font-weight="bold" font-style="italic" font-size="14.00">id</text>
<text text-anchor="start" x="558" y="-372.3" font-family="Helvetica,sans-Serif" font-size="14.00"> </text>
<text text-anchor="start" x="581" y="-372.3" font-family="Helvetica,sans-Serif" font-size="14.00">bigserial not null</text>
<text text-anchor="start" x="558" y="-353.3" font-family="Helvetica,sans-Serif" font-size="14.00"> </text>
<text text-anchor="start" x="581" y="-353.3" font-family="Helvetica,sans-Serif" font-size="14.00">auto&#45;incremented</text>
<text text-anchor="start" x="402" y="-334.3" font-family="Helvetica,sans-Serif" font-size="14.00">version</text>
<text text-anchor="start" x="558" y="-334.3" font-family="Helvetica,sans-Serif" font-size="14.00"> </text>
<text text-anchor="start" x="581" y="-334.3" font-family="Helvetica,sans-Serif" font-size="14.00">int4 not null</text>
<text text-anchor="start" x="402" y="-315.3" font-family="Helvetica,sans-Serif" font-size="14.00">zip_endpoint_id</text>
<text text-anchor="start" x="558" y="-315.3" font-family="Helvetica,sans-Serif" font-size="14.00"> </text>
<text text-anchor="start" x="581" y="-315.3" font-family="Helvetica,sans-Serif" font-size="14.00">int8 not null</text>
<text text-anchor="start" x="402" y="-296.3" font-family="Helvetica,sans-Serif" font-size="14.00">created_at</text>
<text text-anchor="start" x="558" y="-296.3" font-family="Helvetica,sans-Serif" font-size="14.00"> </text>
<text text-anchor="start" x="581" y="-296.3" font-family="Helvetica,sans-Serif" font-size="14.00">timestamp not null</text>
<text text-anchor="start" x="402" y="-277.3" font-family="Helvetica,sans-Serif" font-size="14.00">updated_at</text>
<text text-anchor="start" x="558" y="-277.3" font-family="Helvetica,sans-Serif" font-size="14.00"> </text>
<text text-anchor="start" x="581" y="-277.3" font-family="Helvetica,sans-Serif" font-size="14.00">timestamp not null</text>
<text text-anchor="start" x="402" y="-258.3" font-family="Helvetica,sans-Serif" font-size="14.00">preserved_object_id</text>
<text text-anchor="start" x="558" y="-258.3" font-family="Helvetica,sans-Serif" font-size="14.00"> </text>
<text text-anchor="start" x="581" y="-258.3" font-family="Helvetica,sans-Serif" font-size="14.00">int8 not null</text>
<polygon fill="none" stroke="#888888" points="398.5,-251.5 398.5,-405.5 715.5,-405.5 715.5,-251.5 398.5,-251.5"/>
</g>
<!-- zipped_moab_versions_45586cfc&#45;&gt;preserved_objects_37017e83 -->
<g id="edge4" class="edge">
<title>zipped_moab_versions_45586cfc:w&#45;&gt;preserved_objects_37017e83:e</title>
<path fill="none" stroke="black" d="M381.53,-268.41C328.38,-318.99 409.1,-630.96 343.72,-657.68"/>
<polygon fill="black" stroke="black" points="389.7,-265.18 400.66,-265.68 394.35,-263.34 399,-261.5 399,-261.5 399,-261.5 394.35,-263.34 397.34,-257.32 389.7,-265.18 389.7,-265.18"/>
<ellipse fill="none" stroke="black" cx="385.52" cy="-266.83" rx="4" ry="4"/>
<polygon fill="black" stroke="black" points="335.91,-664.23 334.06,-654.4 336.03,-654.03 337.87,-663.86 335.91,-664.23"/>
<polyline fill="none" stroke="black" points="334,-659.5 338.91,-658.58"/>
<polygon fill="black" stroke="black" points="340.82,-663.31 338.97,-653.48 340.94,-653.11 342.79,-662.94 340.82,-663.31"/>
<polyline fill="none" stroke="black" points="338.91,-658.58 343.83,-657.65"/>
</g>
<!-- zip_endpoints_20b2c0f6 -->
<g id="node7" class="node">
<title>zip_endpoints_20b2c0f6</title>
<polygon fill="#e9c2f2" stroke="none" points="40,-308.5 40,-327.5 167,-327.5 167,-308.5 40,-308.5"/>
<text text-anchor="start" x="42" y="-315.3" font-family="Helvetica,sans-Serif" font-weight="bold" font-style="italic" font-size="14.00">zip_endpoints</text>
<polygon fill="#e9c2f2" stroke="none" points="167,-308.5 167,-327.5 303,-327.5 303,-308.5 167,-308.5"/>
<text text-anchor="start" x="255" y="-314.3" font-family="Helvetica,sans-Serif" font-size="14.00">[table]</text>
<text text-anchor="start" x="42" y="-296.3" font-family="Helvetica,sans-Serif" font-weight="bold" font-style="italic" font-size="14.00">id</text>
<text text-anchor="start" x="160" y="-295.3" font-family="Helvetica,sans-Serif" font-size="14.00"> </text>
<text text-anchor="start" x="169" y="-295.3" font-family="Helvetica,sans-Serif" font-size="14.00">bigserial not null</text>
<text text-anchor="start" x="160" y="-276.3" font-family="Helvetica,sans-Serif" font-size="14.00"> </text>
<text text-anchor="start" x="169" y="-276.3" font-family="Helvetica,sans-Serif" font-size="14.00">auto&#45;incremented</text>
<text text-anchor="start" x="42" y="-257.3" font-family="Helvetica,sans-Serif" font-size="14.00">endpoint_name</text>
<text text-anchor="start" x="160" y="-257.3" font-family="Helvetica,sans-Serif" font-size="14.00"> </text>
<text text-anchor="start" x="169" y="-257.3" font-family="Helvetica,sans-Serif" font-size="14.00">varchar not null</text>
<text text-anchor="start" x="42" y="-238.3" font-family="Helvetica,sans-Serif" font-size="14.00">delivery_class</text>
<text text-anchor="start" x="160" y="-238.3" font-family="Helvetica,sans-Serif" font-size="14.00"> </text>
<text text-anchor="start" x="169" y="-238.3" font-family="Helvetica,sans-Serif" font-size="14.00">int4 not null</text>
<text text-anchor="start" x="42" y="-219.3" font-family="Helvetica,sans-Serif" font-size="14.00">endpoint_node</text>
<text text-anchor="start" x="160" y="-219.3" font-family="Helvetica,sans-Serif" font-size="14.00"> </text>
<text text-anchor="start" x="169" y="-219.3" font-family="Helvetica,sans-Serif" font-size="14.00">varchar</text>
<text text-anchor="start" x="42" y="-200.3" font-family="Helvetica,sans-Serif" font-size="14.00">storage_location</text>
<text text-anchor="start" x="160" y="-200.3" font-family="Helvetica,sans-Serif" font-size="14.00"> </text>
<text text-anchor="start" x="169" y="-200.3" font-family="Helvetica,sans-Serif" font-size="14.00">varchar</text>
<text text-anchor="start" x="42" y="-181.3" font-family="Helvetica,sans-Serif" font-size="14.00">created_at</text>
<text text-anchor="start" x="160" y="-181.3" font-family="Helvetica,sans-Serif" font-size="14.00"> </text>
<text text-anchor="start" x="169" y="-181.3" font-family="Helvetica,sans-Serif" font-size="14.00">timestamp not null</text>
<text text-anchor="start" x="42" y="-162.3" font-family="Helvetica,sans-Serif" font-size="14.00">updated_at</text>
<text text-anchor="start" x="160" y="-162.3" font-family="Helvetica,sans-Serif" font-size="14.00"> </text>
<text text-anchor="start" x="169" y="-162.3" font-family="Helvetica,sans-Serif" font-size="14.00">timestamp not null</text>
<polygon fill="none" stroke="#888888" points="38.5,-156 38.5,-329 303.5,-329 303.5,-156 38.5,-156"/>
</g>
<!-- zipped_moab_versions_45586cfc&#45;&gt;zip_endpoints_20b2c0f6 -->
<g id="edge5" class="edge">
<title>zipped_moab_versions_45586cfc:w&#45;&gt;zip_endpoints_20b2c0f6:e</title>
<path fill="none" stroke="black" d="M380.26,-317.13C354.86,-313.2 342.51,-302.01 313.9,-299.86"/>
<polygon fill="black" stroke="black" points="389.03,-317.77 398.67,-322.99 394.01,-318.14 399,-318.5 399,-318.5 399,-318.5 394.01,-318.14 399.33,-314.01 389.03,-317.77 389.03,-317.77"/>
<ellipse fill="none" stroke="black" cx="384.54" cy="-317.45" rx="4" ry="4"/>
<polygon fill="black" stroke="black" points="304.82,-304.53 305.18,-294.54 307.18,-294.61 306.82,-304.61 304.82,-304.53"/>
<polyline fill="none" stroke="black" points="304,-299.5 309,-299.68"/>
<polygon fill="black" stroke="black" points="309.81,-304.71 310.18,-294.72 312.18,-294.79 311.81,-304.79 309.81,-304.71"/>
<polyline fill="none" stroke="black" points="309,-299.68 313.99,-299.86"/>
</g>
<!-- schema_migrations_99dc56d9 -->
<g id="node6" class="node">
<title>schema_migrations_99dc56d9</title>
<polygon fill="#e9c2f2" stroke="none" points="810,-508.5 810,-527.5 965,-527.5 965,-508.5 810,-508.5"/>
<text text-anchor="start" x="812" y="-515.3" font-family="Helvetica,sans-Serif" font-weight="bold" font-style="italic" font-size="14.00">schema_migrations</text>
<polygon fill="#e9c2f2" stroke="none" points="965,-508.5 965,-527.5 1079,-527.5 1079,-508.5 965,-508.5"/>
<text text-anchor="start" x="1031" y="-514.3" font-family="Helvetica,sans-Serif" font-size="14.00">[table]</text>
<text text-anchor="start" x="812" y="-496.3" font-family="Helvetica,sans-Serif" font-weight="bold" font-style="italic" font-size="14.00">version</text>
<text text-anchor="start" x="916" y="-495.3" font-family="Helvetica,sans-Serif" font-size="14.00"> </text>
<text text-anchor="start" x="967" y="-495.3" font-family="Helvetica,sans-Serif" font-size="14.00">varchar not null</text>
<polygon fill="none" stroke="#888888" points="808.5,-488.5 808.5,-528.5 1079.5,-528.5 1079.5,-488.5 808.5,-488.5"/>
</g>
<!-- zip_parts_31fc758 -->
<g id="node8" class="node">
<title>zip_parts_31fc758</title>
<polygon fill="#e9c2f2" stroke="none" points="781,-442.5 781,-461.5 971,-461.5 971,-442.5 781,-442.5"/>
<text text-anchor="start" x="783" y="-449.3" font-family="Helvetica,sans-Serif" font-weight="bold" font-style="italic" font-size="14.00">zip_parts</text>
<polygon fill="#e9c2f2" stroke="none" points="971,-442.5 971,-461.5 1107,-461.5 1107,-442.5 971,-442.5"/>
<text text-anchor="start" x="1059" y="-448.3" font-family="Helvetica,sans-Serif" font-size="14.00">[table]</text>
<text text-anchor="start" x="783" y="-430.3" font-family="Helvetica,sans-Serif" font-weight="bold" font-style="italic" font-size="14.00">id</text>
<text text-anchor="start" x="964" y="-429.3" font-family="Helvetica,sans-Serif" font-size="14.00"> </text>
<text text-anchor="start" x="973" y="-429.3" font-family="Helvetica,sans-Serif" font-size="14.00">bigserial not null</text>
<text text-anchor="start" x="964" y="-410.3" font-family="Helvetica,sans-Serif" font-size="14.00"> </text>
<text text-anchor="start" x="973" y="-410.3" font-family="Helvetica,sans-Serif" font-size="14.00">auto&#45;incremented</text>
<text text-anchor="start" x="783" y="-391.3" font-family="Helvetica,sans-Serif" font-size="14.00">size</text>
<text text-anchor="start" x="964" y="-391.3" font-family="Helvetica,sans-Serif" font-size="14.00"> </text>
<text text-anchor="start" x="973" y="-391.3" font-family="Helvetica,sans-Serif" font-size="14.00">int8</text>
<text text-anchor="start" x="783" y="-372.3" font-family="Helvetica,sans-Serif" font-size="14.00">zipped_moab_version_id</text>
<text text-anchor="start" x="964" y="-372.3" font-family="Helvetica,sans-Serif" font-size="14.00"> </text>
<text text-anchor="start" x="973" y="-372.3" font-family="Helvetica,sans-Serif" font-size="14.00">int8 not null</text>
<text text-anchor="start" x="783" y="-353.3" font-family="Helvetica,sans-Serif" font-size="14.00">created_at</text>
<text text-anchor="start" x="964" y="-353.3" font-family="Helvetica,sans-Serif" font-size="14.00"> </text>
<text text-anchor="start" x="973" y="-353.3" font-family="Helvetica,sans-Serif" font-size="14.00">timestamp not null</text>
<text text-anchor="start" x="783" y="-334.3" font-family="Helvetica,sans-Serif" font-size="14.00">updated_at</text>
<text text-anchor="start" x="964" y="-334.3" font-family="Helvetica,sans-Serif" font-size="14.00"> </text>
<text text-anchor="start" x="973" y="-334.3" font-family="Helvetica,sans-Serif" font-size="14.00">timestamp not null</text>
<text text-anchor="start" x="783" y="-315.3" font-family="Helvetica,sans-Serif" font-size="14.00">md5</text>
<text text-anchor="start" x="964" y="-315.3" font-family="Helvetica,sans-Serif" font-size="14.00"> </text>
<text text-anchor="start" x="973" y="-315.3" font-family="Helvetica,sans-Serif" font-size="14.00">varchar not null</text>
<text text-anchor="start" x="783" y="-296.3" font-family="Helvetica,sans-Serif" font-size="14.00">create_info</text>
<text text-anchor="start" x="964" y="-296.3" font-family="Helvetica,sans-Serif" font-size="14.00"> </text>
<text text-anchor="start" x="973" y="-296.3" font-family="Helvetica,sans-Serif" font-size="14.00">varchar not null</text>
<text text-anchor="start" x="783" y="-277.3" font-family="Helvetica,sans-Serif" font-size="14.00">parts_count</text>
<text text-anchor="start" x="964" y="-277.3" font-family="Helvetica,sans-Serif" font-size="14.00"> </text>
<text text-anchor="start" x="973" y="-277.3" font-family="Helvetica,sans-Serif" font-size="14.00">int4 not null</text>
<text text-anchor="start" x="783" y="-258.3" font-family="Helvetica,sans-Serif" font-size="14.00">suffix</text>
<text text-anchor="start" x="964" y="-258.3" font-family="Helvetica,sans-Serif" font-size="14.00"> </text>
<text text-anchor="start" x="973" y="-258.3" font-family="Helvetica,sans-Serif" font-size="14.00">varchar not null</text>
<text text-anchor="start" x="783" y="-239.3" font-family="Helvetica,sans-Serif" font-size="14.00">status</text>
<text text-anchor="start" x="964" y="-239.3" font-family="Helvetica,sans-Serif" font-size="14.00"> </text>
<text text-anchor="start" x="973" y="-239.3" font-family="Helvetica,sans-Serif" font-size="14.00">int4 not null</text>
<text text-anchor="start" x="783" y="-220.3" font-family="Helvetica,sans-Serif" font-size="14.00">last_existence_check</text>
<text text-anchor="start" x="964" y="-220.3" font-family="Helvetica,sans-Serif" font-size="14.00"> </text>
<text text-anchor="start" x="973" y="-220.3" font-family="Helvetica,sans-Serif" font-size="14.00">timestamp</text>
<text text-anchor="start" x="783" y="-201.3" font-family="Helvetica,sans-Serif" font-size="14.00">last_checksum_validation</text>
<text text-anchor="start" x="964" y="-201.3" font-family="Helvetica,sans-Serif" font-size="14.00"> </text>
<text text-anchor="start" x="973" y="-201.3" font-family="Helvetica,sans-Serif" font-size="14.00">timestamp</text>
<polygon fill="none" stroke="#888888" points="780,-194.5 780,-462.5 1108,-462.5 1108,-194.5 780,-194.5"/>
</g>
<!-- zip_parts_31fc758&#45;&gt;zipped_moab_versions_45586cfc -->
<g id="edge6" class="edge">
<title>zip_parts_31fc758:w&#45;&gt;zipped_moab_versions_45586cfc:e</title>
<path fill="none" stroke="black" d="M761.05,-376.5C748.81,-376.5 740.27,-376.5 725.84,-376.5"/>
<polygon fill="black" stroke="black" points="770,-376.5 780,-381 775,-376.5 780,-376.5 780,-376.5 780,-376.5 775,-376.5 780,-372 770,-376.5 770,-376.5"/>
<ellipse fill="none" stroke="black" cx="765.5" cy="-376.5" rx="4" ry="4"/>
<polygon fill="black" stroke="black" points="717,-381.5 717,-371.5 719,-371.5 719,-381.5 717,-381.5"/>
<polyline fill="none" stroke="black" points="716,-376.5 721,-376.5"/>
<polygon fill="black" stroke="black" points="722,-381.5 722,-371.5 724,-371.5 724,-381.5 722,-381.5"/>
<polyline fill="none" stroke="black" points="721,-376.5 726,-376.5"/>
</g>
</g>
</svg>
