<?xml version="1.0" encoding="UTF-8" standalone="no"?>
<!DOCTYPE svg PUBLIC "-//W3C//DTD SVG 1.1//EN"
 "http://www.w3.org/Graphics/SVG/1.1/DTD/svg11.dtd">
<!-- Generated by graphviz version 3.0.0 (20220413.0242)
 -->
<!-- Title: SchemaCrawler_Diagram Pages: 1 -->
<svg width="1625pt" height="854pt"
 viewBox="0.00 0.00 1625.00 854.00" xmlns="http://www.w3.org/2000/svg" xmlns:xlink="http://www.w3.org/1999/xlink">
<g id="graph0" class="graph" transform="scale(1 1) rotate(0) translate(4 850)">
<title>SchemaCrawler_Diagram</title>
<polygon fill="white" stroke="transparent" points="-4,4 -4,-850 1621,-850 1621,4 -4,4"/>
<text text-anchor="start" x="1340" y="-49.3" font-family="Helvetica,sans-Serif" font-weight="bold" font-style="italic" font-size="14.00">PresCat Schema ER Diagram</text>
<text text-anchor="start" x="1340" y="-29.3" font-family="Helvetica,sans-Serif" font-size="14.00">generated by</text>
<text text-anchor="start" x="1438" y="-29.3" font-family="Helvetica,sans-Serif" font-size="14.00">SchemaCrawler 16.18.2</text>
<text text-anchor="start" x="1340" y="-10.3" font-family="Helvetica,sans-Serif" font-size="14.00">generated on</text>
<text text-anchor="start" x="1438" y="-10.3" font-family="Helvetica,sans-Serif" font-size="14.00">2022&#45;11&#45;04 00:37:41</text>
<polygon fill="none" stroke="#888888" points="1337,-4 1337,-63 1609,-63 1609,-4 1337,-4"/>
<!-- ar_internal_metadata_fd77e4f9 -->
<g id="node1" class="node">
<title>ar_internal_metadata_fd77e4f9</title>
<polygon fill="#e9c2f2" stroke="transparent" points="1291,-147.5 1291,-166.5 1464,-166.5 1464,-147.5 1291,-147.5"/>
<text text-anchor="start" x="1293" y="-154.3" font-family="Helvetica,sans-Serif" font-weight="bold" font-style="italic" font-size="14.00">ar_internal_metadata</text>
<polygon fill="#e9c2f2" stroke="transparent" points="1464,-147.5 1464,-166.5 1600,-166.5 1600,-147.5 1464,-147.5"/>
<text text-anchor="start" x="1552" y="-153.3" font-family="Helvetica,sans-Serif" font-size="14.00">[table]</text>
<text text-anchor="start" x="1293" y="-135.3" font-family="Helvetica,sans-Serif" font-weight="bold" font-style="italic" font-size="14.00">key</text>
<text text-anchor="start" x="1416" y="-134.3" font-family="Helvetica,sans-Serif" font-size="14.00"> </text>
<text text-anchor="start" x="1466" y="-134.3" font-family="Helvetica,sans-Serif" font-size="14.00">varchar not null</text>
<text text-anchor="start" x="1293" y="-115.3" font-family="Helvetica,sans-Serif" font-size="14.00">&quot;value&quot;</text>
<text text-anchor="start" x="1416" y="-115.3" font-family="Helvetica,sans-Serif" font-size="14.00"> </text>
<text text-anchor="start" x="1466" y="-115.3" font-family="Helvetica,sans-Serif" font-size="14.00">varchar</text>
<text text-anchor="start" x="1293" y="-96.3" font-family="Helvetica,sans-Serif" font-size="14.00">created_at</text>
<text text-anchor="start" x="1416" y="-96.3" font-family="Helvetica,sans-Serif" font-size="14.00"> </text>
<text text-anchor="start" x="1466" y="-96.3" font-family="Helvetica,sans-Serif" font-size="14.00">timestamp not null</text>
<text text-anchor="start" x="1293" y="-77.3" font-family="Helvetica,sans-Serif" font-size="14.00">updated_at</text>
<text text-anchor="start" x="1416" y="-77.3" font-family="Helvetica,sans-Serif" font-size="14.00"> </text>
<text text-anchor="start" x="1466" y="-77.3" font-family="Helvetica,sans-Serif" font-size="14.00">timestamp not null</text>
<polygon fill="none" stroke="#888888" points="1289.5,-71 1289.5,-168 1600.5,-168 1600.5,-71 1289.5,-71"/>
</g>
<!-- complete_moabs_47690420 -->
<g id="node2" class="node">
<title>complete_moabs_47690420</title>
<polygon fill="#e9c2f2" stroke="transparent" points="825.5,-698.5 825.5,-717.5 1029.5,-717.5 1029.5,-698.5 825.5,-698.5"/>
<text text-anchor="start" x="827.5" y="-705.3" font-family="Helvetica,sans-Serif" font-weight="bold" font-style="italic" font-size="14.00">complete_moabs</text>
<polygon fill="#e9c2f2" stroke="transparent" points="1029.5,-698.5 1029.5,-717.5 1165.5,-717.5 1165.5,-698.5 1029.5,-698.5"/>
<text text-anchor="start" x="1117.5" y="-704.3" font-family="Helvetica,sans-Serif" font-size="14.00">[table]</text>
<text text-anchor="start" x="827.5" y="-686.3" font-family="Helvetica,sans-Serif" font-weight="bold" font-style="italic" font-size="14.00">id</text>
<text text-anchor="start" x="1022.5" y="-685.3" font-family="Helvetica,sans-Serif" font-size="14.00"> </text>
<text text-anchor="start" x="1031.5" y="-685.3" font-family="Helvetica,sans-Serif" font-size="14.00">bigserial not null</text>
<text text-anchor="start" x="1022.5" y="-666.3" font-family="Helvetica,sans-Serif" font-size="14.00"> </text>
<text text-anchor="start" x="1031.5" y="-666.3" font-family="Helvetica,sans-Serif" font-size="14.00">auto&#45;incremented</text>
<text text-anchor="start" x="827.5" y="-647.3" font-family="Helvetica,sans-Serif" font-size="14.00">version</text>
<text text-anchor="start" x="1022.5" y="-647.3" font-family="Helvetica,sans-Serif" font-size="14.00"> </text>
<text text-anchor="start" x="1031.5" y="-647.3" font-family="Helvetica,sans-Serif" font-size="14.00">int4 not null</text>
<text text-anchor="start" x="827.5" y="-628.3" font-family="Helvetica,sans-Serif" font-size="14.00">preserved_object_id</text>
<text text-anchor="start" x="1022.5" y="-628.3" font-family="Helvetica,sans-Serif" font-size="14.00"> </text>
<text text-anchor="start" x="1031.5" y="-628.3" font-family="Helvetica,sans-Serif" font-size="14.00">int8 not null</text>
<text text-anchor="start" x="827.5" y="-609.3" font-family="Helvetica,sans-Serif" font-size="14.00">moab_storage_root_id</text>
<text text-anchor="start" x="1022.5" y="-609.3" font-family="Helvetica,sans-Serif" font-size="14.00"> </text>
<text text-anchor="start" x="1031.5" y="-609.3" font-family="Helvetica,sans-Serif" font-size="14.00">int8 not null</text>
<text text-anchor="start" x="827.5" y="-590.3" font-family="Helvetica,sans-Serif" font-size="14.00">created_at</text>
<text text-anchor="start" x="1022.5" y="-590.3" font-family="Helvetica,sans-Serif" font-size="14.00"> </text>
<text text-anchor="start" x="1031.5" y="-590.3" font-family="Helvetica,sans-Serif" font-size="14.00">timestamp not null</text>
<text text-anchor="start" x="827.5" y="-571.3" font-family="Helvetica,sans-Serif" font-size="14.00">updated_at</text>
<text text-anchor="start" x="1022.5" y="-571.3" font-family="Helvetica,sans-Serif" font-size="14.00"> </text>
<text text-anchor="start" x="1031.5" y="-571.3" font-family="Helvetica,sans-Serif" font-size="14.00">timestamp not null</text>
<text text-anchor="start" x="827.5" y="-552.3" font-family="Helvetica,sans-Serif" font-size="14.00">last_moab_validation</text>
<text text-anchor="start" x="1022.5" y="-552.3" font-family="Helvetica,sans-Serif" font-size="14.00"> </text>
<text text-anchor="start" x="1031.5" y="-552.3" font-family="Helvetica,sans-Serif" font-size="14.00">timestamp</text>
<text text-anchor="start" x="827.5" y="-533.3" font-family="Helvetica,sans-Serif" font-size="14.00">last_checksum_validation</text>
<text text-anchor="start" x="1022.5" y="-533.3" font-family="Helvetica,sans-Serif" font-size="14.00"> </text>
<text text-anchor="start" x="1031.5" y="-533.3" font-family="Helvetica,sans-Serif" font-size="14.00">timestamp</text>
<text text-anchor="start" x="827.5" y="-514.3" font-family="Helvetica,sans-Serif" font-size="14.00">size</text>
<text text-anchor="start" x="1022.5" y="-514.3" font-family="Helvetica,sans-Serif" font-size="14.00"> </text>
<text text-anchor="start" x="1031.5" y="-514.3" font-family="Helvetica,sans-Serif" font-size="14.00">int8</text>
<text text-anchor="start" x="827.5" y="-495.3" font-family="Helvetica,sans-Serif" font-size="14.00">status</text>
<text text-anchor="start" x="1022.5" y="-495.3" font-family="Helvetica,sans-Serif" font-size="14.00"> </text>
<text text-anchor="start" x="1031.5" y="-495.3" font-family="Helvetica,sans-Serif" font-size="14.00">int4 not null</text>
<text text-anchor="start" x="827.5" y="-476.3" font-family="Helvetica,sans-Serif" font-size="14.00">last_version_audit</text>
<text text-anchor="start" x="1022.5" y="-476.3" font-family="Helvetica,sans-Serif" font-size="14.00"> </text>
<text text-anchor="start" x="1031.5" y="-476.3" font-family="Helvetica,sans-Serif" font-size="14.00">timestamp</text>
<text text-anchor="start" x="827.5" y="-457.3" font-family="Helvetica,sans-Serif" font-size="14.00">status_details</text>
<text text-anchor="start" x="1022.5" y="-457.3" font-family="Helvetica,sans-Serif" font-size="14.00"> </text>
<text text-anchor="start" x="1031.5" y="-457.3" font-family="Helvetica,sans-Serif" font-size="14.00">varchar</text>
<text text-anchor="start" x="827.5" y="-438.3" font-family="Helvetica,sans-Serif" font-size="14.00">from_moab_storage_root_id</text>
<text text-anchor="start" x="1022.5" y="-438.3" font-family="Helvetica,sans-Serif" font-size="14.00"> </text>
<text text-anchor="start" x="1031.5" y="-438.3" font-family="Helvetica,sans-Serif" font-size="14.00">int8</text>
<polygon fill="none" stroke="#888888" points="824.5,-432 824.5,-719 1166.5,-719 1166.5,-432 824.5,-432"/>
</g>
<!-- moab_storage_roots_c77b6227 -->
<g id="node3" class="node">
<title>moab_storage_roots_c77b6227</title>
<polygon fill="#e9c2f2" stroke="transparent" points="397,-707.5 397,-726.5 561,-726.5 561,-707.5 397,-707.5"/>
<text text-anchor="start" x="399" y="-714.3" font-family="Helvetica,sans-Serif" font-weight="bold" font-style="italic" font-size="14.00">moab_storage_roots</text>
<polygon fill="#e9c2f2" stroke="transparent" points="561,-707.5 561,-726.5 697,-726.5 697,-707.5 561,-707.5"/>
<text text-anchor="start" x="649" y="-713.3" font-family="Helvetica,sans-Serif" font-size="14.00">[table]</text>
<text text-anchor="start" x="399" y="-695.3" font-family="Helvetica,sans-Serif" font-weight="bold" font-style="italic" font-size="14.00">id</text>
<text text-anchor="start" x="535" y="-694.3" font-family="Helvetica,sans-Serif" font-size="14.00"> </text>
<text text-anchor="start" x="563" y="-694.3" font-family="Helvetica,sans-Serif" font-size="14.00">bigserial not null</text>
<text text-anchor="start" x="535" y="-675.3" font-family="Helvetica,sans-Serif" font-size="14.00"> </text>
<text text-anchor="start" x="563" y="-675.3" font-family="Helvetica,sans-Serif" font-size="14.00">auto&#45;incremented</text>
<text text-anchor="start" x="399" y="-656.3" font-family="Helvetica,sans-Serif" font-size="14.00">name</text>
<text text-anchor="start" x="535" y="-656.3" font-family="Helvetica,sans-Serif" font-size="14.00"> </text>
<text text-anchor="start" x="563" y="-656.3" font-family="Helvetica,sans-Serif" font-size="14.00">varchar not null</text>
<text text-anchor="start" x="399" y="-637.3" font-family="Helvetica,sans-Serif" font-size="14.00">created_at</text>
<text text-anchor="start" x="535" y="-637.3" font-family="Helvetica,sans-Serif" font-size="14.00"> </text>
<text text-anchor="start" x="563" y="-637.3" font-family="Helvetica,sans-Serif" font-size="14.00">timestamp not null</text>
<text text-anchor="start" x="399" y="-618.3" font-family="Helvetica,sans-Serif" font-size="14.00">updated_at</text>
<text text-anchor="start" x="535" y="-618.3" font-family="Helvetica,sans-Serif" font-size="14.00"> </text>
<text text-anchor="start" x="563" y="-618.3" font-family="Helvetica,sans-Serif" font-size="14.00">timestamp not null</text>
<text text-anchor="start" x="399" y="-599.3" font-family="Helvetica,sans-Serif" font-size="14.00">storage_location</text>
<text text-anchor="start" x="535" y="-599.3" font-family="Helvetica,sans-Serif" font-size="14.00"> </text>
<text text-anchor="start" x="563" y="-599.3" font-family="Helvetica,sans-Serif" font-size="14.00">varchar not null</text>
<polygon fill="none" stroke="#888888" points="396,-593 396,-728 698,-728 698,-593 396,-593"/>
</g>
<!-- complete_moabs_47690420&#45;&gt;moab_storage_roots_c77b6227 -->
<g id="edge1" class="edge">
<title>complete_moabs_47690420:w&#45;&gt;moab_storage_roots_c77b6227:e</title>
<path fill="none" stroke="black" d="M806.42,-443.57C712.82,-467.18 812.41,-685.16 708.02,-697.92"/>
<polygon fill="black" stroke="black" points="814.56,-442.64 825.01,-445.97 819.53,-442.07 824.5,-441.5 824.5,-441.5 824.5,-441.5 819.53,-442.07 823.99,-437.03 814.56,-442.64 814.56,-442.64"/>
<ellipse fill="none" stroke="black" cx="810.59" cy="-443.09" rx="4" ry="4"/>
<polygon fill="black" stroke="black" points="699.29,-703.43 698.71,-693.45 700.7,-693.33 701.29,-703.32 699.29,-703.43"/>
<polyline fill="none" stroke="black" points="698,-698.5 702.99,-698.21 "/>
<polygon fill="black" stroke="black" points="704.28,-703.14 703.7,-693.16 705.7,-693.04 706.28,-703.03 704.28,-703.14"/>
<polyline fill="none" stroke="black" points="702.99,-698.21 707.98,-697.92 "/>
</g>
<!-- complete_moabs_47690420&#45;&gt;moab_storage_roots_c77b6227 -->
<g id="edge2" class="edge">
<title>complete_moabs_47690420:w&#45;&gt;moab_storage_roots_c77b6227:e</title>
<path fill="none" stroke="black" d="M806.39,-615.86C760.64,-628.79 759.02,-690.61 708.1,-697.82"/>
<polygon fill="black" stroke="black" points="814.58,-614.79 825.08,-617.96 819.54,-614.15 824.5,-613.5 824.5,-613.5 824.5,-613.5 819.54,-614.15 823.92,-609.04 814.58,-614.79 814.58,-614.79"/>
<ellipse fill="none" stroke="black" cx="810.62" cy="-615.31" rx="4" ry="4"/>
<polygon fill="black" stroke="black" points="699.34,-703.42 698.66,-693.44 700.65,-693.31 701.33,-703.29 699.34,-703.42"/>
<polyline fill="none" stroke="black" points="698,-698.5 702.99,-698.16 "/>
<polygon fill="black" stroke="black" points="704.32,-703.08 703.65,-693.11 705.64,-692.97 706.32,-702.95 704.32,-703.08"/>
<polyline fill="none" stroke="black" points="702.99,-698.16 707.98,-697.82 "/>
</g>
<!-- preserved_objects_37017e83 -->
<g id="node7" class="node">
<title>preserved_objects_37017e83</title>
<polygon fill="#e9c2f2" stroke="transparent" points="385,-546.5 385,-565.5 573,-565.5 573,-546.5 385,-546.5"/>
<text text-anchor="start" x="387" y="-553.3" font-family="Helvetica,sans-Serif" font-weight="bold" font-style="italic" font-size="14.00">preserved_objects</text>
<polygon fill="#e9c2f2" stroke="transparent" points="573,-546.5 573,-565.5 709,-565.5 709,-546.5 573,-546.5"/>
<text text-anchor="start" x="661" y="-552.3" font-family="Helvetica,sans-Serif" font-size="14.00">[table]</text>
<text text-anchor="start" x="387" y="-534.3" font-family="Helvetica,sans-Serif" font-weight="bold" font-style="italic" font-size="14.00">id</text>
<text text-anchor="start" x="566" y="-533.3" font-family="Helvetica,sans-Serif" font-size="14.00"> </text>
<text text-anchor="start" x="575" y="-533.3" font-family="Helvetica,sans-Serif" font-size="14.00">bigserial not null</text>
<text text-anchor="start" x="566" y="-514.3" font-family="Helvetica,sans-Serif" font-size="14.00"> </text>
<text text-anchor="start" x="575" y="-514.3" font-family="Helvetica,sans-Serif" font-size="14.00">auto&#45;incremented</text>
<text text-anchor="start" x="387" y="-495.3" font-family="Helvetica,sans-Serif" font-size="14.00">druid</text>
<text text-anchor="start" x="566" y="-495.3" font-family="Helvetica,sans-Serif" font-size="14.00"> </text>
<text text-anchor="start" x="575" y="-495.3" font-family="Helvetica,sans-Serif" font-size="14.00">varchar not null</text>
<text text-anchor="start" x="387" y="-476.3" font-family="Helvetica,sans-Serif" font-size="14.00">current_version</text>
<text text-anchor="start" x="566" y="-476.3" font-family="Helvetica,sans-Serif" font-size="14.00"> </text>
<text text-anchor="start" x="575" y="-476.3" font-family="Helvetica,sans-Serif" font-size="14.00">int4 not null</text>
<text text-anchor="start" x="387" y="-457.3" font-family="Helvetica,sans-Serif" font-size="14.00">created_at</text>
<text text-anchor="start" x="566" y="-457.3" font-family="Helvetica,sans-Serif" font-size="14.00"> </text>
<text text-anchor="start" x="575" y="-457.3" font-family="Helvetica,sans-Serif" font-size="14.00">timestamp not null</text>
<text text-anchor="start" x="387" y="-438.3" font-family="Helvetica,sans-Serif" font-size="14.00">updated_at</text>
<text text-anchor="start" x="566" y="-438.3" font-family="Helvetica,sans-Serif" font-size="14.00"> </text>
<text text-anchor="start" x="575" y="-438.3" font-family="Helvetica,sans-Serif" font-size="14.00">timestamp not null</text>
<text text-anchor="start" x="387" y="-419.3" font-family="Helvetica,sans-Serif" font-size="14.00">preservation_policy_id</text>
<text text-anchor="start" x="566" y="-419.3" font-family="Helvetica,sans-Serif" font-size="14.00"> </text>
<text text-anchor="start" x="575" y="-419.3" font-family="Helvetica,sans-Serif" font-size="14.00">int8 not null</text>
<text text-anchor="start" x="387" y="-400.3" font-family="Helvetica,sans-Serif" font-size="14.00">last_archive_audit</text>
<text text-anchor="start" x="566" y="-400.3" font-family="Helvetica,sans-Serif" font-size="14.00"> </text>
<text text-anchor="start" x="575" y="-400.3" font-family="Helvetica,sans-Serif" font-size="14.00">timestamp</text>
<text text-anchor="start" x="387" y="-381.3" font-family="Helvetica,sans-Serif" font-size="14.00">robot_versioning_allowed</text>
<text text-anchor="start" x="566" y="-381.3" font-family="Helvetica,sans-Serif" font-size="14.00"> </text>
<text text-anchor="start" x="575" y="-381.3" font-family="Helvetica,sans-Serif" font-size="14.00">bool not null</text>
<polygon fill="none" stroke="#888888" points="384,-374.5 384,-566.5 710,-566.5 710,-374.5 384,-374.5"/>
</g>
<!-- complete_moabs_47690420&#45;&gt;preserved_objects_37017e83 -->
<g id="edge7" class="edge">
<title>complete_moabs_47690420:w&#45;&gt;preserved_objects_37017e83:e</title>
<path fill="none" stroke="black" d="M811.42,-631.08C763.49,-619.96 770.29,-546.84 720.07,-538.31"/>
<polygon fill="black" stroke="black" points="824.04,-627.42 822.97,-637.36 820.98,-637.15 822.06,-627.21 824.04,-627.42"/>
<polyline fill="none" stroke="black" points="824.5,-632.5 819.53,-631.96 "/>
<ellipse fill="none" stroke="black" cx="815.55" cy="-631.53" rx="4" ry="4"/>
<polygon fill="black" stroke="black" points="710.59,-542.56 711.4,-532.6 713.39,-532.76 712.59,-542.72 710.59,-542.56"/>
<polyline fill="none" stroke="black" points="710,-537.5 714.98,-537.9 "/>
<polygon fill="black" stroke="black" points="715.58,-542.97 716.38,-533 718.38,-533.16 717.57,-543.13 715.58,-542.97"/>
<polyline fill="none" stroke="black" points="714.98,-537.9 719.97,-538.3 "/>
</g>
<!-- moab_storage_roots_preservation_policies_106c5d3b -->
<g id="node4" class="node">
<title>moab_storage_roots_preservation_policies_106c5d3b</title>
<polygon fill="#e9c2f2" stroke="transparent" points="763.5,-821.5 763.5,-840.5 1100.5,-840.5 1100.5,-821.5 763.5,-821.5"/>
<text text-anchor="start" x="765.5" y="-828.3" font-family="Helvetica,sans-Serif" font-weight="bold" font-style="italic" font-size="14.00">moab_storage_roots_preservation_policies</text>
<polygon fill="#e9c2f2" stroke="transparent" points="1100.5,-821.5 1100.5,-840.5 1228.5,-840.5 1228.5,-821.5 1100.5,-821.5"/>
<text text-anchor="start" x="1180.5" y="-827.3" font-family="Helvetica,sans-Serif" font-size="14.00">[table]</text>
<text text-anchor="start" x="765.5" y="-809.3" font-family="Helvetica,sans-Serif" font-weight="bold" font-style="italic" font-size="14.00">id</text>
<text text-anchor="start" x="1008.5" y="-808.3" font-family="Helvetica,sans-Serif" font-size="14.00"> </text>
<text text-anchor="start" x="1102.5" y="-808.3" font-family="Helvetica,sans-Serif" font-size="14.00">bigserial not null</text>
<text text-anchor="start" x="1008.5" y="-789.3" font-family="Helvetica,sans-Serif" font-size="14.00"> </text>
<text text-anchor="start" x="1102.5" y="-789.3" font-family="Helvetica,sans-Serif" font-size="14.00">auto&#45;incremented</text>
<text text-anchor="start" x="765.5" y="-770.3" font-family="Helvetica,sans-Serif" font-size="14.00">preservation_policy_id</text>
<text text-anchor="start" x="1008.5" y="-770.3" font-family="Helvetica,sans-Serif" font-size="14.00"> </text>
<text text-anchor="start" x="1102.5" y="-770.3" font-family="Helvetica,sans-Serif" font-size="14.00">int8 not null</text>
<text text-anchor="start" x="765.5" y="-751.3" font-family="Helvetica,sans-Serif" font-size="14.00">moab_storage_root_id</text>
<text text-anchor="start" x="1008.5" y="-751.3" font-family="Helvetica,sans-Serif" font-size="14.00"> </text>
<text text-anchor="start" x="1102.5" y="-751.3" font-family="Helvetica,sans-Serif" font-size="14.00">int8 not null</text>
<polygon fill="none" stroke="#888888" points="762,-745 762,-842 1229,-842 1229,-745 762,-745"/>
</g>
<!-- moab_storage_roots_preservation_policies_106c5d3b&#45;&gt;moab_storage_roots_c77b6227 -->
<g id="edge3" class="edge">
<title>moab_storage_roots_preservation_policies_106c5d3b:w&#45;&gt;moab_storage_roots_c77b6227:e</title>
<path fill="none" stroke="black" d="M745.17,-748.93C729.37,-736.53 728.5,-707.22 708.06,-700.09"/>
<polygon fill="black" stroke="black" points="752.98,-751.44 761.12,-758.78 757.74,-752.97 762.5,-754.5 762.5,-754.5 762.5,-754.5 757.74,-752.97 763.88,-750.22 752.98,-751.44 752.98,-751.44"/>
<ellipse fill="none" stroke="black" cx="749.17" cy="-750.21" rx="4" ry="4"/>
<polygon fill="black" stroke="black" points="698.21,-703.59 699.77,-693.72 701.74,-694.03 700.18,-703.91 698.21,-703.59"/>
<polyline fill="none" stroke="black" points="698,-698.5 702.94,-699.28 "/>
<polygon fill="black" stroke="black" points="703.15,-704.37 704.71,-694.5 706.68,-694.81 705.12,-704.69 703.15,-704.37"/>
<polyline fill="none" stroke="black" points="702.94,-699.28 707.88,-700.06 "/>
</g>
<!-- preservation_policies_3acedbe9 -->
<g id="node5" class="node">
<title>preservation_policies_3acedbe9</title>
<polygon fill="#e9c2f2" stroke="transparent" points="9,-431.5 9,-450.5 203,-450.5 203,-431.5 9,-431.5"/>
<text text-anchor="start" x="11" y="-438.3" font-family="Helvetica,sans-Serif" font-weight="bold" font-style="italic" font-size="14.00">preservation_policies</text>
<polygon fill="#e9c2f2" stroke="transparent" points="203,-431.5 203,-450.5 331,-450.5 331,-431.5 203,-431.5"/>
<text text-anchor="start" x="283" y="-437.3" font-family="Helvetica,sans-Serif" font-size="14.00">[table]</text>
<text text-anchor="start" x="11" y="-419.3" font-family="Helvetica,sans-Serif" font-weight="bold" font-style="italic" font-size="14.00">id</text>
<text text-anchor="start" x="196" y="-418.3" font-family="Helvetica,sans-Serif" font-size="14.00"> </text>
<text text-anchor="start" x="205" y="-418.3" font-family="Helvetica,sans-Serif" font-size="14.00">bigserial not null</text>
<text text-anchor="start" x="196" y="-399.3" font-family="Helvetica,sans-Serif" font-size="14.00"> </text>
<text text-anchor="start" x="205" y="-399.3" font-family="Helvetica,sans-Serif" font-size="14.00">auto&#45;incremented</text>
<text text-anchor="start" x="11" y="-380.3" font-family="Helvetica,sans-Serif" font-size="14.00">preservation_policy_name</text>
<text text-anchor="start" x="196" y="-380.3" font-family="Helvetica,sans-Serif" font-size="14.00"> </text>
<text text-anchor="start" x="205" y="-380.3" font-family="Helvetica,sans-Serif" font-size="14.00">varchar not null</text>
<text text-anchor="start" x="11" y="-361.3" font-family="Helvetica,sans-Serif" font-size="14.00">archive_ttl</text>
<text text-anchor="start" x="196" y="-361.3" font-family="Helvetica,sans-Serif" font-size="14.00"> </text>
<text text-anchor="start" x="205" y="-361.3" font-family="Helvetica,sans-Serif" font-size="14.00">int4 not null</text>
<text text-anchor="start" x="11" y="-342.3" font-family="Helvetica,sans-Serif" font-size="14.00">fixity_ttl</text>
<text text-anchor="start" x="196" y="-342.3" font-family="Helvetica,sans-Serif" font-size="14.00"> </text>
<text text-anchor="start" x="205" y="-342.3" font-family="Helvetica,sans-Serif" font-size="14.00">int4 not null</text>
<polygon fill="none" stroke="#888888" points="8,-335.5 8,-451.5 332,-451.5 332,-335.5 8,-335.5"/>
</g>
<!-- moab_storage_roots_preservation_policies_106c5d3b&#45;&gt;preservation_policies_3acedbe9 -->
<g id="edge4" class="edge">
<title>moab_storage_roots_preservation_policies_106c5d3b:w&#45;&gt;preservation_policies_3acedbe9:e</title>
<path fill="none" stroke="black" d="M744.14,-773.83C583.66,-779.48 496.63,-855.73 376,-741.5 326.78,-694.89 395.54,-450.34 342.1,-424.68"/>
<polygon fill="black" stroke="black" points="752.5,-773.68 762.58,-778 757.5,-773.59 762.5,-773.5 762.5,-773.5 762.5,-773.5 757.5,-773.59 762.42,-769 752.5,-773.68 752.5,-773.68"/>
<ellipse fill="none" stroke="black" cx="748.5" cy="-773.75" rx="4" ry="4"/>
<polygon fill="black" stroke="black" points="331.92,-427.6 334.03,-417.82 335.99,-418.24 333.88,-428.02 331.92,-427.6"/>
<polyline fill="none" stroke="black" points="332,-422.5 336.89,-423.55 "/>
<polygon fill="black" stroke="black" points="336.81,-428.65 338.92,-418.88 340.87,-419.3 338.77,-429.07 336.81,-428.65"/>
<polyline fill="none" stroke="black" points="336.89,-423.55 341.78,-424.61 "/>
</g>
<!-- preservation_policies_zip_endpoints_8a99f28a -->
<g id="node6" class="node">
<title>preservation_policies_zip_endpoints_8a99f28a</title>
<polygon fill="#e9c2f2" stroke="transparent" points="789.5,-197.5 789.5,-216.5 1074.5,-216.5 1074.5,-197.5 789.5,-197.5"/>
<text text-anchor="start" x="791.5" y="-204.3" font-family="Helvetica,sans-Serif" font-weight="bold" font-style="italic" font-size="14.00">preservation_policies_zip_endpoints</text>
<polygon fill="#e9c2f2" stroke="transparent" points="1074.5,-197.5 1074.5,-216.5 1202.5,-216.5 1202.5,-197.5 1074.5,-197.5"/>
<text text-anchor="start" x="1154.5" y="-203.3" font-family="Helvetica,sans-Serif" font-size="14.00">[table]</text>
<text text-anchor="start" x="791.5" y="-185.3" font-family="Helvetica,sans-Serif" font-weight="bold" font-style="italic" font-size="14.00">id</text>
<text text-anchor="start" x="1008.5" y="-184.3" font-family="Helvetica,sans-Serif" font-size="14.00"> </text>
<text text-anchor="start" x="1076.5" y="-184.3" font-family="Helvetica,sans-Serif" font-size="14.00">bigserial not null</text>
<text text-anchor="start" x="1008.5" y="-165.3" font-family="Helvetica,sans-Serif" font-size="14.00"> </text>
<text text-anchor="start" x="1076.5" y="-165.3" font-family="Helvetica,sans-Serif" font-size="14.00">auto&#45;incremented</text>
<text text-anchor="start" x="791.5" y="-146.3" font-family="Helvetica,sans-Serif" font-size="14.00">preservation_policy_id</text>
<text text-anchor="start" x="1008.5" y="-146.3" font-family="Helvetica,sans-Serif" font-size="14.00"> </text>
<text text-anchor="start" x="1076.5" y="-146.3" font-family="Helvetica,sans-Serif" font-size="14.00">int8 not null</text>
<text text-anchor="start" x="791.5" y="-127.3" font-family="Helvetica,sans-Serif" font-size="14.00">zip_endpoint_id</text>
<text text-anchor="start" x="1008.5" y="-127.3" font-family="Helvetica,sans-Serif" font-size="14.00"> </text>
<text text-anchor="start" x="1076.5" y="-127.3" font-family="Helvetica,sans-Serif" font-size="14.00">int8 not null</text>
<polygon fill="none" stroke="#888888" points="788,-121 788,-218 1203,-218 1203,-121 788,-121"/>
</g>
<!-- preservation_policies_zip_endpoints_8a99f28a&#45;&gt;preservation_policies_3acedbe9 -->
<g id="edge5" class="edge">
<title>preservation_policies_zip_endpoints_8a99f28a:w&#45;&gt;preservation_policies_3acedbe9:e</title>
<path fill="none" stroke="black" d="M770.27,-149.15C598.9,-142.51 509.57,-45.98 376,-162.5 334.69,-198.54 383.45,-394.71 341.93,-419.85"/>
<polygon fill="black" stroke="black" points="778.5,-149.31 788.41,-154 783.5,-149.4 788.5,-149.5 788.5,-149.5 788.5,-149.5 783.5,-149.4 788.59,-145 778.5,-149.31 778.5,-149.31"/>
<ellipse fill="none" stroke="black" cx="774.5" cy="-149.23" rx="4" ry="4"/>
<polygon fill="black" stroke="black" points="334.26,-427.07 331.68,-417.41 333.61,-416.9 336.19,-426.56 334.26,-427.07"/>
<polyline fill="none" stroke="black" points="332,-422.5 336.83,-421.21 "/>
<polygon fill="black" stroke="black" points="339.09,-425.78 336.51,-416.12 338.44,-415.6 341.02,-425.27 339.09,-425.78"/>
<polyline fill="none" stroke="black" points="336.83,-421.21 341.66,-419.92 "/>
</g>
<!-- zip_endpoints_20b2c0f6 -->
<g id="node10" class="node">
<title>zip_endpoints_20b2c0f6</title>
<polygon fill="#e9c2f2" stroke="transparent" points="416,-327.5 416,-346.5 543,-346.5 543,-327.5 416,-327.5"/>
<text text-anchor="start" x="418" y="-334.3" font-family="Helvetica,sans-Serif" font-weight="bold" font-style="italic" font-size="14.00">zip_endpoints</text>
<polygon fill="#e9c2f2" stroke="transparent" points="543,-327.5 543,-346.5 679,-346.5 679,-327.5 543,-327.5"/>
<text text-anchor="start" x="631" y="-333.3" font-family="Helvetica,sans-Serif" font-size="14.00">[table]</text>
<text text-anchor="start" x="418" y="-315.3" font-family="Helvetica,sans-Serif" font-weight="bold" font-style="italic" font-size="14.00">id</text>
<text text-anchor="start" x="536" y="-314.3" font-family="Helvetica,sans-Serif" font-size="14.00"> </text>
<text text-anchor="start" x="545" y="-314.3" font-family="Helvetica,sans-Serif" font-size="14.00">bigserial not null</text>
<text text-anchor="start" x="536" y="-295.3" font-family="Helvetica,sans-Serif" font-size="14.00"> </text>
<text text-anchor="start" x="545" y="-295.3" font-family="Helvetica,sans-Serif" font-size="14.00">auto&#45;incremented</text>
<text text-anchor="start" x="418" y="-276.3" font-family="Helvetica,sans-Serif" font-size="14.00">endpoint_name</text>
<text text-anchor="start" x="536" y="-276.3" font-family="Helvetica,sans-Serif" font-size="14.00"> </text>
<text text-anchor="start" x="545" y="-276.3" font-family="Helvetica,sans-Serif" font-size="14.00">varchar not null</text>
<text text-anchor="start" x="418" y="-257.3" font-family="Helvetica,sans-Serif" font-size="14.00">delivery_class</text>
<text text-anchor="start" x="536" y="-257.3" font-family="Helvetica,sans-Serif" font-size="14.00"> </text>
<text text-anchor="start" x="545" y="-257.3" font-family="Helvetica,sans-Serif" font-size="14.00">int4 not null</text>
<text text-anchor="start" x="418" y="-238.3" font-family="Helvetica,sans-Serif" font-size="14.00">endpoint_node</text>
<text text-anchor="start" x="536" y="-238.3" font-family="Helvetica,sans-Serif" font-size="14.00"> </text>
<text text-anchor="start" x="545" y="-238.3" font-family="Helvetica,sans-Serif" font-size="14.00">varchar</text>
<text text-anchor="start" x="418" y="-219.3" font-family="Helvetica,sans-Serif" font-size="14.00">storage_location</text>
<text text-anchor="start" x="536" y="-219.3" font-family="Helvetica,sans-Serif" font-size="14.00"> </text>
<text text-anchor="start" x="545" y="-219.3" font-family="Helvetica,sans-Serif" font-size="14.00">varchar</text>
<text text-anchor="start" x="418" y="-200.3" font-family="Helvetica,sans-Serif" font-size="14.00">created_at</text>
<text text-anchor="start" x="536" y="-200.3" font-family="Helvetica,sans-Serif" font-size="14.00"> </text>
<text text-anchor="start" x="545" y="-200.3" font-family="Helvetica,sans-Serif" font-size="14.00">timestamp not null</text>
<text text-anchor="start" x="418" y="-181.3" font-family="Helvetica,sans-Serif" font-size="14.00">updated_at</text>
<text text-anchor="start" x="536" y="-181.3" font-family="Helvetica,sans-Serif" font-size="14.00"> </text>
<text text-anchor="start" x="545" y="-181.3" font-family="Helvetica,sans-Serif" font-size="14.00">timestamp not null</text>
<polygon fill="none" stroke="#888888" points="414.5,-175 414.5,-348 679.5,-348 679.5,-175 414.5,-175"/>
</g>
<!-- preservation_policies_zip_endpoints_8a99f28a&#45;&gt;zip_endpoints_20b2c0f6 -->
<g id="edge9" class="edge">
<title>preservation_policies_zip_endpoints_8a99f28a:w&#45;&gt;zip_endpoints_20b2c0f6:e</title>
<path fill="none" stroke="black" d="M770.28,-133.3C706.04,-155.73 764.29,-305.46 690.25,-317.7"/>
<polygon fill="black" stroke="black" points="778.62,-132.02 789.18,-134.95 783.56,-131.26 788.5,-130.5 788.5,-130.5 788.5,-130.5 783.56,-131.26 787.82,-126.05 778.62,-132.02 778.62,-132.02"/>
<ellipse fill="none" stroke="black" cx="774.66" cy="-132.63" rx="4" ry="4"/>
<polygon fill="black" stroke="black" points="681.38,-323.41 680.61,-313.44 682.6,-313.28 683.38,-323.25 681.38,-323.41"/>
<polyline fill="none" stroke="black" points="680,-318.5 684.98,-318.11 "/>
<polygon fill="black" stroke="black" points="686.37,-323.02 685.59,-313.05 687.59,-312.9 688.36,-322.87 686.37,-323.02"/>
<polyline fill="none" stroke="black" points="684.98,-318.11 689.97,-317.73 "/>
</g>
<!-- preserved_objects_37017e83&#45;&gt;preservation_policies_3acedbe9 -->
<g id="edge6" class="edge">
<title>preserved_objects_37017e83:w&#45;&gt;preservation_policies_3acedbe9:e</title>
<path fill="none" stroke="black" d="M365.99,-422.5C357.97,-422.5 351.61,-422.5 342.16,-422.5"/>
<polygon fill="black" stroke="black" points="374,-422.5 384,-427 379,-422.5 384,-422.5 384,-422.5 384,-422.5 379,-422.5 384,-418 374,-422.5 374,-422.5"/>
<ellipse fill="none" stroke="black" cx="370" cy="-422.5" rx="4" ry="4"/>
<polygon fill="black" stroke="black" points="333,-427.5 333,-417.5 335,-417.5 335,-427.5 333,-427.5"/>
<polyline fill="none" stroke="black" points="332,-422.5 337,-422.5 "/>
<polygon fill="black" stroke="black" points="338,-427.5 338,-417.5 340,-417.5 340,-427.5 338,-427.5"/>
<polyline fill="none" stroke="black" points="337,-422.5 342,-422.5 "/>
</g>
<!-- zipped_moab_versions_45586cfc -->
<g id="node8" class="node">
<title>zipped_moab_versions_45586cfc</title>
<polygon fill="#e9c2f2" stroke="transparent" points="838.5,-385.5 838.5,-404.5 1017.5,-404.5 1017.5,-385.5 838.5,-385.5"/>
<text text-anchor="start" x="840.5" y="-392.3" font-family="Helvetica,sans-Serif" font-weight="bold" font-style="italic" font-size="14.00">zipped_moab_versions</text>
<polygon fill="#e9c2f2" stroke="transparent" points="1017.5,-385.5 1017.5,-404.5 1153.5,-404.5 1153.5,-385.5 1017.5,-385.5"/>
<text text-anchor="start" x="1105.5" y="-391.3" font-family="Helvetica,sans-Serif" font-size="14.00">[table]</text>
<text text-anchor="start" x="840.5" y="-373.3" font-family="Helvetica,sans-Serif" font-weight="bold" font-style="italic" font-size="14.00">id</text>
<text text-anchor="start" x="996.5" y="-372.3" font-family="Helvetica,sans-Serif" font-size="14.00"> </text>
<text text-anchor="start" x="1019.5" y="-372.3" font-family="Helvetica,sans-Serif" font-size="14.00">bigserial not null</text>
<text text-anchor="start" x="996.5" y="-353.3" font-family="Helvetica,sans-Serif" font-size="14.00"> </text>
<text text-anchor="start" x="1019.5" y="-353.3" font-family="Helvetica,sans-Serif" font-size="14.00">auto&#45;incremented</text>
<text text-anchor="start" x="840.5" y="-334.3" font-family="Helvetica,sans-Serif" font-size="14.00">version</text>
<text text-anchor="start" x="996.5" y="-334.3" font-family="Helvetica,sans-Serif" font-size="14.00"> </text>
<text text-anchor="start" x="1019.5" y="-334.3" font-family="Helvetica,sans-Serif" font-size="14.00">int4 not null</text>
<text text-anchor="start" x="840.5" y="-315.3" font-family="Helvetica,sans-Serif" font-size="14.00">zip_endpoint_id</text>
<text text-anchor="start" x="996.5" y="-315.3" font-family="Helvetica,sans-Serif" font-size="14.00"> </text>
<text text-anchor="start" x="1019.5" y="-315.3" font-family="Helvetica,sans-Serif" font-size="14.00">int8 not null</text>
<text text-anchor="start" x="840.5" y="-296.3" font-family="Helvetica,sans-Serif" font-size="14.00">created_at</text>
<text text-anchor="start" x="996.5" y="-296.3" font-family="Helvetica,sans-Serif" font-size="14.00"> </text>
<text text-anchor="start" x="1019.5" y="-296.3" font-family="Helvetica,sans-Serif" font-size="14.00">timestamp not null</text>
<text text-anchor="start" x="840.5" y="-277.3" font-family="Helvetica,sans-Serif" font-size="14.00">updated_at</text>
<text text-anchor="start" x="996.5" y="-277.3" font-family="Helvetica,sans-Serif" font-size="14.00"> </text>
<text text-anchor="start" x="1019.5" y="-277.3" font-family="Helvetica,sans-Serif" font-size="14.00">timestamp not null</text>
<text text-anchor="start" x="840.5" y="-258.3" font-family="Helvetica,sans-Serif" font-size="14.00">preserved_object_id</text>
<text text-anchor="start" x="996.5" y="-258.3" font-family="Helvetica,sans-Serif" font-size="14.00"> </text>
<text text-anchor="start" x="1019.5" y="-258.3" font-family="Helvetica,sans-Serif" font-size="14.00">int8 not null</text>
<polygon fill="none" stroke="#888888" points="837,-251.5 837,-405.5 1154,-405.5 1154,-251.5 837,-251.5"/>
</g>
<!-- zipped_moab_versions_45586cfc&#45;&gt;preserved_objects_37017e83 -->
<g id="edge8" class="edge">
<title>zipped_moab_versions_45586cfc:w&#45;&gt;preserved_objects_37017e83:e</title>
<path fill="none" stroke="black" d="M819.31,-263.33C762.51,-276.1 783.71,-353.26 754,-419.5 732.62,-467.18 761.59,-528.68 719.99,-536.64"/>
<polygon fill="black" stroke="black" points="827.55,-262.5 837.95,-265.98 832.53,-262 837.5,-261.5 837.5,-261.5 837.5,-261.5 832.53,-262 837.05,-257.02 827.55,-262.5 827.55,-262.5"/>
<ellipse fill="none" stroke="black" cx="823.57" cy="-262.9" rx="4" ry="4"/>
<polygon fill="black" stroke="black" points="711.43,-542.4 710.57,-532.43 712.56,-532.26 713.42,-542.22 711.43,-542.4"/>
<polyline fill="none" stroke="black" points="710,-537.5 714.98,-537.07 "/>
<polygon fill="black" stroke="black" points="716.41,-541.97 715.55,-532 717.54,-531.83 718.4,-541.79 716.41,-541.97"/>
<polyline fill="none" stroke="black" points="714.98,-537.07 719.96,-536.64 "/>
</g>
<!-- zipped_moab_versions_45586cfc&#45;&gt;zip_endpoints_20b2c0f6 -->
<g id="edge10" class="edge">
<title>zipped_moab_versions_45586cfc:w&#45;&gt;zip_endpoints_20b2c0f6:e</title>
<path fill="none" stroke="black" d="M819.47,-318.5C766.89,-318.5 745.9,-318.5 690.05,-318.5"/>
<polygon fill="black" stroke="black" points="827.5,-318.5 837.5,-323 832.5,-318.5 837.5,-318.5 837.5,-318.5 837.5,-318.5 832.5,-318.5 837.5,-314 827.5,-318.5 827.5,-318.5"/>
<ellipse fill="none" stroke="black" cx="823.5" cy="-318.5" rx="4" ry="4"/>
<polygon fill="black" stroke="black" points="681,-323.5 681,-313.5 683,-313.5 683,-323.5 681,-323.5"/>
<polyline fill="none" stroke="black" points="680,-318.5 685,-318.5 "/>
<polygon fill="black" stroke="black" points="686,-323.5 686,-313.5 688,-313.5 688,-323.5 686,-323.5"/>
<polyline fill="none" stroke="black" points="685,-318.5 690,-318.5 "/>
</g>
<!-- schema_migrations_99dc56d9 -->
<g id="node9" class="node">
<title>schema_migrations_99dc56d9</title>
<polygon fill="#e9c2f2" stroke="transparent" points="1311,-508.5 1311,-527.5 1466,-527.5 1466,-508.5 1311,-508.5"/>
<text text-anchor="start" x="1313" y="-515.3" font-family="Helvetica,sans-Serif" font-weight="bold" font-style="italic" font-size="14.00">schema_migrations</text>
<polygon fill="#e9c2f2" stroke="transparent" points="1466,-508.5 1466,-527.5 1580,-527.5 1580,-508.5 1466,-508.5"/>
<text text-anchor="start" x="1532" y="-514.3" font-family="Helvetica,sans-Serif" font-size="14.00">[table]</text>
<text text-anchor="start" x="1313" y="-496.3" font-family="Helvetica,sans-Serif" font-weight="bold" font-style="italic" font-size="14.00">version</text>
<text text-anchor="start" x="1417" y="-495.3" font-family="Helvetica,sans-Serif" font-size="14.00"> </text>
<text text-anchor="start" x="1468" y="-495.3" font-family="Helvetica,sans-Serif" font-size="14.00">varchar not null</text>
<polygon fill="none" stroke="#888888" points="1309.5,-488.5 1309.5,-528.5 1580.5,-528.5 1580.5,-488.5 1309.5,-488.5"/>
</g>
<!-- zip_parts_31fc758 -->
<g id="node11" class="node">
<title>zip_parts_31fc758</title>
<polygon fill="#e9c2f2" stroke="transparent" points="1282,-442.5 1282,-461.5 1472,-461.5 1472,-442.5 1282,-442.5"/>
<text text-anchor="start" x="1284" y="-449.3" font-family="Helvetica,sans-Serif" font-weight="bold" font-style="italic" font-size="14.00">zip_parts</text>
<polygon fill="#e9c2f2" stroke="transparent" points="1472,-442.5 1472,-461.5 1608,-461.5 1608,-442.5 1472,-442.5"/>
<text text-anchor="start" x="1560" y="-448.3" font-family="Helvetica,sans-Serif" font-size="14.00">[table]</text>
<text text-anchor="start" x="1284" y="-430.3" font-family="Helvetica,sans-Serif" font-weight="bold" font-style="italic" font-size="14.00">id</text>
<text text-anchor="start" x="1465" y="-429.3" font-family="Helvetica,sans-Serif" font-size="14.00"> </text>
<text text-anchor="start" x="1474" y="-429.3" font-family="Helvetica,sans-Serif" font-size="14.00">bigserial not null</text>
<text text-anchor="start" x="1465" y="-410.3" font-family="Helvetica,sans-Serif" font-size="14.00"> </text>
<text text-anchor="start" x="1474" y="-410.3" font-family="Helvetica,sans-Serif" font-size="14.00">auto&#45;incremented</text>
<text text-anchor="start" x="1284" y="-391.3" font-family="Helvetica,sans-Serif" font-size="14.00">size</text>
<text text-anchor="start" x="1465" y="-391.3" font-family="Helvetica,sans-Serif" font-size="14.00"> </text>
<text text-anchor="start" x="1474" y="-391.3" font-family="Helvetica,sans-Serif" font-size="14.00">int8</text>
<text text-anchor="start" x="1284" y="-372.3" font-family="Helvetica,sans-Serif" font-size="14.00">zipped_moab_version_id</text>
<text text-anchor="start" x="1465" y="-372.3" font-family="Helvetica,sans-Serif" font-size="14.00"> </text>
<text text-anchor="start" x="1474" y="-372.3" font-family="Helvetica,sans-Serif" font-size="14.00">int8 not null</text>
<text text-anchor="start" x="1284" y="-353.3" font-family="Helvetica,sans-Serif" font-size="14.00">created_at</text>
<text text-anchor="start" x="1465" y="-353.3" font-family="Helvetica,sans-Serif" font-size="14.00"> </text>
<text text-anchor="start" x="1474" y="-353.3" font-family="Helvetica,sans-Serif" font-size="14.00">timestamp not null</text>
<text text-anchor="start" x="1284" y="-334.3" font-family="Helvetica,sans-Serif" font-size="14.00">updated_at</text>
<text text-anchor="start" x="1465" y="-334.3" font-family="Helvetica,sans-Serif" font-size="14.00"> </text>
<text text-anchor="start" x="1474" y="-334.3" font-family="Helvetica,sans-Serif" font-size="14.00">timestamp not null</text>
<text text-anchor="start" x="1284" y="-315.3" font-family="Helvetica,sans-Serif" font-size="14.00">md5</text>
<text text-anchor="start" x="1465" y="-315.3" font-family="Helvetica,sans-Serif" font-size="14.00"> </text>
<text text-anchor="start" x="1474" y="-315.3" font-family="Helvetica,sans-Serif" font-size="14.00">varchar not null</text>
<text text-anchor="start" x="1284" y="-296.3" font-family="Helvetica,sans-Serif" font-size="14.00">create_info</text>
<text text-anchor="start" x="1465" y="-296.3" font-family="Helvetica,sans-Serif" font-size="14.00"> </text>
<text text-anchor="start" x="1474" y="-296.3" font-family="Helvetica,sans-Serif" font-size="14.00">varchar not null</text>
<text text-anchor="start" x="1284" y="-277.3" font-family="Helvetica,sans-Serif" font-size="14.00">parts_count</text>
<text text-anchor="start" x="1465" y="-277.3" font-family="Helvetica,sans-Serif" font-size="14.00"> </text>
<text text-anchor="start" x="1474" y="-277.3" font-family="Helvetica,sans-Serif" font-size="14.00">int4 not null</text>
<text text-anchor="start" x="1284" y="-258.3" font-family="Helvetica,sans-Serif" font-size="14.00">suffix</text>
<text text-anchor="start" x="1465" y="-258.3" font-family="Helvetica,sans-Serif" font-size="14.00"> </text>
<text text-anchor="start" x="1474" y="-258.3" font-family="Helvetica,sans-Serif" font-size="14.00">varchar not null</text>
<text text-anchor="start" x="1284" y="-239.3" font-family="Helvetica,sans-Serif" font-size="14.00">status</text>
<text text-anchor="start" x="1465" y="-239.3" font-family="Helvetica,sans-Serif" font-size="14.00"> </text>
<text text-anchor="start" x="1474" y="-239.3" font-family="Helvetica,sans-Serif" font-size="14.00">int4 not null</text>
<text text-anchor="start" x="1284" y="-220.3" font-family="Helvetica,sans-Serif" font-size="14.00">last_existence_check</text>
<text text-anchor="start" x="1465" y="-220.3" font-family="Helvetica,sans-Serif" font-size="14.00"> </text>
<text text-anchor="start" x="1474" y="-220.3" font-family="Helvetica,sans-Serif" font-size="14.00">timestamp</text>
<text text-anchor="start" x="1284" y="-201.3" font-family="Helvetica,sans-Serif" font-size="14.00">last_checksum_validation</text>
<text text-anchor="start" x="1465" y="-201.3" font-family="Helvetica,sans-Serif" font-size="14.00"> </text>
<text text-anchor="start" x="1474" y="-201.3" font-family="Helvetica,sans-Serif" font-size="14.00">timestamp</text>
<polygon fill="none" stroke="#888888" points="1281,-194.5 1281,-462.5 1609,-462.5 1609,-194.5 1281,-194.5"/>
</g>
<!-- zip_parts_31fc758&#45;&gt;zipped_moab_versions_45586cfc -->
<g id="edge11" class="edge">
<title>zip_parts_31fc758:w&#45;&gt;zipped_moab_versions_45586cfc:e</title>
<path fill="none" stroke="black" d="M1262.84,-376.5C1223.85,-376.5 1206.62,-376.5 1164.5,-376.5"/>
<polygon fill="black" stroke="black" points="1271,-376.5 1281,-381 1276,-376.5 1281,-376.5 1281,-376.5 1281,-376.5 1276,-376.5 1281,-372 1271,-376.5 1271,-376.5"/>
<ellipse fill="none" stroke="black" cx="1267" cy="-376.5" rx="4" ry="4"/>
<polygon fill="black" stroke="black" points="1155.5,-381.5 1155.5,-371.5 1157.5,-371.5 1157.5,-381.5 1155.5,-381.5"/>
<polyline fill="none" stroke="black" points="1154.5,-376.5 1159.5,-376.5 "/>
<polygon fill="black" stroke="black" points="1160.5,-381.5 1160.5,-371.5 1162.5,-371.5 1162.5,-381.5 1160.5,-381.5"/>
<polyline fill="none" stroke="black" points="1159.5,-376.5 1164.5,-376.5 "/>
</g>
</g>
</svg>
