<?xml version="1.0" encoding="UTF-8" standalone="no"?>
<!DOCTYPE svg PUBLIC "-//W3C//DTD SVG 1.1//EN"
 "http://www.w3.org/Graphics/SVG/1.1/DTD/svg11.dtd">
<!-- Generated by graphviz version 3.0.0 (20220413.0242)
 -->
<!-- Title: SchemaCrawler_Diagram Pages: 1 -->
<svg width="1124pt" height="750pt"
 viewBox="0.00 0.00 1124.00 750.00" xmlns="http://www.w3.org/2000/svg" xmlns:xlink="http://www.w3.org/1999/xlink">
<g id="graph0" class="graph" transform="scale(1 1) rotate(0) translate(4 746)">
<title>SchemaCrawler_Diagram</title>
<polygon fill="white" stroke="transparent" points="-4,4 -4,-746 1120,-746 1120,4 -4,4"/>
<text text-anchor="start" x="839" y="-49.3" font-family="Helvetica,sans-Serif" font-weight="bold" font-style="italic" font-size="14.00">PresCat Schema ER Diagram</text>
<text text-anchor="start" x="839" y="-29.3" font-family="Helvetica,sans-Serif" font-size="14.00">generated by</text>
<text text-anchor="start" x="937" y="-29.3" font-family="Helvetica,sans-Serif" font-size="14.00">SchemaCrawler 16.18.2</text>
<text text-anchor="start" x="839" y="-10.3" font-family="Helvetica,sans-Serif" font-size="14.00">generated on</text>
<text text-anchor="start" x="937" y="-10.3" font-family="Helvetica,sans-Serif" font-size="14.00">2022&#45;11&#45;15 00:33:26</text>
<polygon fill="none" stroke="#888888" points="836,-4 836,-63 1108,-63 1108,-4 836,-4"/>
<!-- ar_internal_metadata_fd77e4f9 -->
<g id="node1" class="node">
<title>ar_internal_metadata_fd77e4f9</title>
<polygon fill="#e9c2f2" stroke="transparent" points="790,-147.5 790,-166.5 963,-166.5 963,-147.5 790,-147.5"/>
<text text-anchor="start" x="792" y="-154.3" font-family="Helvetica,sans-Serif" font-weight="bold" font-style="italic" font-size="14.00">ar_internal_metadata</text>
<polygon fill="#e9c2f2" stroke="transparent" points="963,-147.5 963,-166.5 1099,-166.5 1099,-147.5 963,-147.5"/>
<text text-anchor="start" x="1051" y="-153.3" font-family="Helvetica,sans-Serif" font-size="14.00">[table]</text>
<text text-anchor="start" x="792" y="-135.3" font-family="Helvetica,sans-Serif" font-weight="bold" font-style="italic" font-size="14.00">key</text>
<text text-anchor="start" x="915" y="-134.3" font-family="Helvetica,sans-Serif" font-size="14.00"> </text>
<text text-anchor="start" x="965" y="-134.3" font-family="Helvetica,sans-Serif" font-size="14.00">varchar not null</text>
<text text-anchor="start" x="792" y="-115.3" font-family="Helvetica,sans-Serif" font-size="14.00">&quot;value&quot;</text>
<text text-anchor="start" x="915" y="-115.3" font-family="Helvetica,sans-Serif" font-size="14.00"> </text>
<text text-anchor="start" x="965" y="-115.3" font-family="Helvetica,sans-Serif" font-size="14.00">varchar</text>
<text text-anchor="start" x="792" y="-96.3" font-family="Helvetica,sans-Serif" font-size="14.00">created_at</text>
<text text-anchor="start" x="915" y="-96.3" font-family="Helvetica,sans-Serif" font-size="14.00"> </text>
<text text-anchor="start" x="965" y="-96.3" font-family="Helvetica,sans-Serif" font-size="14.00">timestamp not null</text>
<text text-anchor="start" x="792" y="-77.3" font-family="Helvetica,sans-Serif" font-size="14.00">updated_at</text>
<text text-anchor="start" x="915" y="-77.3" font-family="Helvetica,sans-Serif" font-size="14.00"> </text>
<text text-anchor="start" x="965" y="-77.3" font-family="Helvetica,sans-Serif" font-size="14.00">timestamp not null</text>
<polygon fill="none" stroke="#888888" points="788.5,-71 788.5,-168 1099.5,-168 1099.5,-71 788.5,-71"/>
</g>
<!-- complete_moabs_47690420 -->
<g id="node2" class="node">
<title>complete_moabs_47690420</title>
<polygon fill="#e9c2f2" stroke="transparent" points="387,-717.5 387,-736.5 591,-736.5 591,-717.5 387,-717.5"/>
<text text-anchor="start" x="389" y="-724.3" font-family="Helvetica,sans-Serif" font-weight="bold" font-style="italic" font-size="14.00">complete_moabs</text>
<polygon fill="#e9c2f2" stroke="transparent" points="591,-717.5 591,-736.5 727,-736.5 727,-717.5 591,-717.5"/>
<text text-anchor="start" x="679" y="-723.3" font-family="Helvetica,sans-Serif" font-size="14.00">[table]</text>
<text text-anchor="start" x="389" y="-705.3" font-family="Helvetica,sans-Serif" font-weight="bold" font-style="italic" font-size="14.00">id</text>
<text text-anchor="start" x="584" y="-704.3" font-family="Helvetica,sans-Serif" font-size="14.00"> </text>
<text text-anchor="start" x="593" y="-704.3" font-family="Helvetica,sans-Serif" font-size="14.00">bigserial not null</text>
<text text-anchor="start" x="584" y="-685.3" font-family="Helvetica,sans-Serif" font-size="14.00"> </text>
<text text-anchor="start" x="593" y="-685.3" font-family="Helvetica,sans-Serif" font-size="14.00">auto&#45;incremented</text>
<text text-anchor="start" x="389" y="-666.3" font-family="Helvetica,sans-Serif" font-size="14.00">version</text>
<text text-anchor="start" x="584" y="-666.3" font-family="Helvetica,sans-Serif" font-size="14.00"> </text>
<text text-anchor="start" x="593" y="-666.3" font-family="Helvetica,sans-Serif" font-size="14.00">int4 not null</text>
<text text-anchor="start" x="389" y="-647.3" font-family="Helvetica,sans-Serif" font-size="14.00">preserved_object_id</text>
<text text-anchor="start" x="584" y="-647.3" font-family="Helvetica,sans-Serif" font-size="14.00"> </text>
<text text-anchor="start" x="593" y="-647.3" font-family="Helvetica,sans-Serif" font-size="14.00">int8 not null</text>
<text text-anchor="start" x="389" y="-628.3" font-family="Helvetica,sans-Serif" font-size="14.00">moab_storage_root_id</text>
<text text-anchor="start" x="584" y="-628.3" font-family="Helvetica,sans-Serif" font-size="14.00"> </text>
<text text-anchor="start" x="593" y="-628.3" font-family="Helvetica,sans-Serif" font-size="14.00">int8 not null</text>
<text text-anchor="start" x="389" y="-609.3" font-family="Helvetica,sans-Serif" font-size="14.00">created_at</text>
<text text-anchor="start" x="584" y="-609.3" font-family="Helvetica,sans-Serif" font-size="14.00"> </text>
<text text-anchor="start" x="593" y="-609.3" font-family="Helvetica,sans-Serif" font-size="14.00">timestamp not null</text>
<text text-anchor="start" x="389" y="-590.3" font-family="Helvetica,sans-Serif" font-size="14.00">updated_at</text>
<text text-anchor="start" x="584" y="-590.3" font-family="Helvetica,sans-Serif" font-size="14.00"> </text>
<text text-anchor="start" x="593" y="-590.3" font-family="Helvetica,sans-Serif" font-size="14.00">timestamp not null</text>
<text text-anchor="start" x="389" y="-571.3" font-family="Helvetica,sans-Serif" font-size="14.00">last_moab_validation</text>
<text text-anchor="start" x="584" y="-571.3" font-family="Helvetica,sans-Serif" font-size="14.00"> </text>
<text text-anchor="start" x="593" y="-571.3" font-family="Helvetica,sans-Serif" font-size="14.00">timestamp</text>
<text text-anchor="start" x="389" y="-552.3" font-family="Helvetica,sans-Serif" font-size="14.00">last_checksum_validation</text>
<text text-anchor="start" x="584" y="-552.3" font-family="Helvetica,sans-Serif" font-size="14.00"> </text>
<text text-anchor="start" x="593" y="-552.3" font-family="Helvetica,sans-Serif" font-size="14.00">timestamp</text>
<text text-anchor="start" x="389" y="-533.3" font-family="Helvetica,sans-Serif" font-size="14.00">size</text>
<text text-anchor="start" x="584" y="-533.3" font-family="Helvetica,sans-Serif" font-size="14.00"> </text>
<text text-anchor="start" x="593" y="-533.3" font-family="Helvetica,sans-Serif" font-size="14.00">int8</text>
<text text-anchor="start" x="389" y="-514.3" font-family="Helvetica,sans-Serif" font-size="14.00">status</text>
<text text-anchor="start" x="584" y="-514.3" font-family="Helvetica,sans-Serif" font-size="14.00"> </text>
<text text-anchor="start" x="593" y="-514.3" font-family="Helvetica,sans-Serif" font-size="14.00">int4 not null</text>
<text text-anchor="start" x="389" y="-495.3" font-family="Helvetica,sans-Serif" font-size="14.00">last_version_audit</text>
<text text-anchor="start" x="584" y="-495.3" font-family="Helvetica,sans-Serif" font-size="14.00"> </text>
<text text-anchor="start" x="593" y="-495.3" font-family="Helvetica,sans-Serif" font-size="14.00">timestamp</text>
<text text-anchor="start" x="389" y="-476.3" font-family="Helvetica,sans-Serif" font-size="14.00">status_details</text>
<text text-anchor="start" x="584" y="-476.3" font-family="Helvetica,sans-Serif" font-size="14.00"> </text>
<text text-anchor="start" x="593" y="-476.3" font-family="Helvetica,sans-Serif" font-size="14.00">varchar</text>
<text text-anchor="start" x="389" y="-457.3" font-family="Helvetica,sans-Serif" font-size="14.00">from_moab_storage_root_id</text>
<text text-anchor="start" x="584" y="-457.3" font-family="Helvetica,sans-Serif" font-size="14.00"> </text>
<text text-anchor="start" x="593" y="-457.3" font-family="Helvetica,sans-Serif" font-size="14.00">int8</text>
<polygon fill="none" stroke="#888888" points="386,-451 386,-738 728,-738 728,-451 386,-451"/>
</g>
<!-- moab_storage_roots_c77b6227 -->
<g id="node3" class="node">
<title>moab_storage_roots_c77b6227</title>
<polygon fill="#e9c2f2" stroke="transparent" points="21,-469.5 21,-488.5 185,-488.5 185,-469.5 21,-469.5"/>
<text text-anchor="start" x="23" y="-476.3" font-family="Helvetica,sans-Serif" font-weight="bold" font-style="italic" font-size="14.00">moab_storage_roots</text>
<polygon fill="#e9c2f2" stroke="transparent" points="185,-469.5 185,-488.5 321,-488.5 321,-469.5 185,-469.5"/>
<text text-anchor="start" x="273" y="-475.3" font-family="Helvetica,sans-Serif" font-size="14.00">[table]</text>
<text text-anchor="start" x="23" y="-457.3" font-family="Helvetica,sans-Serif" font-weight="bold" font-style="italic" font-size="14.00">id</text>
<text text-anchor="start" x="159" y="-456.3" font-family="Helvetica,sans-Serif" font-size="14.00"> </text>
<text text-anchor="start" x="187" y="-456.3" font-family="Helvetica,sans-Serif" font-size="14.00">bigserial not null</text>
<text text-anchor="start" x="159" y="-437.3" font-family="Helvetica,sans-Serif" font-size="14.00"> </text>
<text text-anchor="start" x="187" y="-437.3" font-family="Helvetica,sans-Serif" font-size="14.00">auto&#45;incremented</text>
<text text-anchor="start" x="23" y="-418.3" font-family="Helvetica,sans-Serif" font-size="14.00">name</text>
<text text-anchor="start" x="159" y="-418.3" font-family="Helvetica,sans-Serif" font-size="14.00"> </text>
<text text-anchor="start" x="187" y="-418.3" font-family="Helvetica,sans-Serif" font-size="14.00">varchar not null</text>
<text text-anchor="start" x="23" y="-399.3" font-family="Helvetica,sans-Serif" font-size="14.00">created_at</text>
<text text-anchor="start" x="159" y="-399.3" font-family="Helvetica,sans-Serif" font-size="14.00"> </text>
<text text-anchor="start" x="187" y="-399.3" font-family="Helvetica,sans-Serif" font-size="14.00">timestamp not null</text>
<text text-anchor="start" x="23" y="-380.3" font-family="Helvetica,sans-Serif" font-size="14.00">updated_at</text>
<text text-anchor="start" x="159" y="-380.3" font-family="Helvetica,sans-Serif" font-size="14.00"> </text>
<text text-anchor="start" x="187" y="-380.3" font-family="Helvetica,sans-Serif" font-size="14.00">timestamp not null</text>
<text text-anchor="start" x="23" y="-361.3" font-family="Helvetica,sans-Serif" font-size="14.00">storage_location</text>
<text text-anchor="start" x="159" y="-361.3" font-family="Helvetica,sans-Serif" font-size="14.00"> </text>
<text text-anchor="start" x="187" y="-361.3" font-family="Helvetica,sans-Serif" font-size="14.00">varchar not null</text>
<polygon fill="none" stroke="#888888" points="20,-355 20,-490 322,-490 322,-355 20,-355"/>
</g>
<!-- complete_moabs_47690420&#45;&gt;moab_storage_roots_c77b6227 -->
<g id="edge1" class="edge">
<title>complete_moabs_47690420:w&#45;&gt;moab_storage_roots_c77b6227:e</title>
<path fill="none" stroke="black" d="M367.52,-460.5C355.18,-460.5 346.66,-460.5 332.34,-460.5"/>
<polygon fill="black" stroke="black" points="376,-460.5 386,-465 381,-460.5 386,-460.5 386,-460.5 386,-460.5 381,-460.5 386,-456 376,-460.5 376,-460.5"/>
<ellipse fill="none" stroke="black" cx="372" cy="-460.5" rx="4" ry="4"/>
<polygon fill="black" stroke="black" points="323,-465.5 323,-455.5 325,-455.5 325,-465.5 323,-465.5"/>
<polyline fill="none" stroke="black" points="322,-460.5 327,-460.5 "/>
<polygon fill="black" stroke="black" points="328,-465.5 328,-455.5 330,-455.5 330,-465.5 328,-465.5"/>
<polyline fill="none" stroke="black" points="327,-460.5 332,-460.5 "/>
</g>
<!-- complete_moabs_47690420&#45;&gt;moab_storage_roots_c77b6227 -->
<g id="edge2" class="edge">
<title>complete_moabs_47690420:w&#45;&gt;moab_storage_roots_c77b6227:e</title>
<path fill="none" stroke="black" d="M368.13,-628.58C323.19,-604.28 388.89,-474.67 332.19,-461.57"/>
<polygon fill="black" stroke="black" points="376.23,-630.36 385.04,-636.9 381.12,-631.43 386,-632.5 386,-632.5 386,-632.5 381.12,-631.43 386.96,-628.1 376.23,-630.36 376.23,-630.36"/>
<ellipse fill="none" stroke="black" cx="372.32" cy="-629.5" rx="4" ry="4"/>
<polygon fill="black" stroke="black" points="322.47,-465.58 323.52,-455.63 325.51,-455.84 324.46,-465.79 322.47,-465.58"/>
<polyline fill="none" stroke="black" points="322,-460.5 326.97,-461.02 "/>
<polygon fill="black" stroke="black" points="327.45,-466.1 328.49,-456.15 330.48,-456.36 329.43,-466.31 327.45,-466.1"/>
<polyline fill="none" stroke="black" points="326.97,-461.02 331.95,-461.54 "/>
</g>
<!-- preserved_objects_37017e83 -->
<g id="node4" class="node">
<title>preserved_objects_37017e83</title>
<polygon fill="#e9c2f2" stroke="transparent" points="9,-668.5 9,-687.5 197,-687.5 197,-668.5 9,-668.5"/>
<text text-anchor="start" x="11" y="-675.3" font-family="Helvetica,sans-Serif" font-weight="bold" font-style="italic" font-size="14.00">preserved_objects</text>
<polygon fill="#e9c2f2" stroke="transparent" points="197,-668.5 197,-687.5 333,-687.5 333,-668.5 197,-668.5"/>
<text text-anchor="start" x="285" y="-674.3" font-family="Helvetica,sans-Serif" font-size="14.00">[table]</text>
<text text-anchor="start" x="11" y="-656.3" font-family="Helvetica,sans-Serif" font-weight="bold" font-style="italic" font-size="14.00">id</text>
<text text-anchor="start" x="190" y="-655.3" font-family="Helvetica,sans-Serif" font-size="14.00"> </text>
<text text-anchor="start" x="199" y="-655.3" font-family="Helvetica,sans-Serif" font-size="14.00">bigserial not null</text>
<text text-anchor="start" x="190" y="-636.3" font-family="Helvetica,sans-Serif" font-size="14.00"> </text>
<text text-anchor="start" x="199" y="-636.3" font-family="Helvetica,sans-Serif" font-size="14.00">auto&#45;incremented</text>
<text text-anchor="start" x="11" y="-617.3" font-family="Helvetica,sans-Serif" font-size="14.00">druid</text>
<text text-anchor="start" x="190" y="-617.3" font-family="Helvetica,sans-Serif" font-size="14.00"> </text>
<text text-anchor="start" x="199" y="-617.3" font-family="Helvetica,sans-Serif" font-size="14.00">varchar not null</text>
<text text-anchor="start" x="11" y="-598.3" font-family="Helvetica,sans-Serif" font-size="14.00">current_version</text>
<text text-anchor="start" x="190" y="-598.3" font-family="Helvetica,sans-Serif" font-size="14.00"> </text>
<text text-anchor="start" x="199" y="-598.3" font-family="Helvetica,sans-Serif" font-size="14.00">int4 not null</text>
<text text-anchor="start" x="11" y="-579.3" font-family="Helvetica,sans-Serif" font-size="14.00">created_at</text>
<text text-anchor="start" x="190" y="-579.3" font-family="Helvetica,sans-Serif" font-size="14.00"> </text>
<text text-anchor="start" x="199" y="-579.3" font-family="Helvetica,sans-Serif" font-size="14.00">timestamp not null</text>
<text text-anchor="start" x="11" y="-560.3" font-family="Helvetica,sans-Serif" font-size="14.00">updated_at</text>
<text text-anchor="start" x="190" y="-560.3" font-family="Helvetica,sans-Serif" font-size="14.00"> </text>
<text text-anchor="start" x="199" y="-560.3" font-family="Helvetica,sans-Serif" font-size="14.00">timestamp not null</text>
<text text-anchor="start" x="11" y="-541.3" font-family="Helvetica,sans-Serif" font-size="14.00">last_archive_audit</text>
<text text-anchor="start" x="190" y="-541.3" font-family="Helvetica,sans-Serif" font-size="14.00"> </text>
<text text-anchor="start" x="199" y="-541.3" font-family="Helvetica,sans-Serif" font-size="14.00">timestamp</text>
<text text-anchor="start" x="11" y="-522.3" font-family="Helvetica,sans-Serif" font-size="14.00">robot_versioning_allowed</text>
<text text-anchor="start" x="190" y="-522.3" font-family="Helvetica,sans-Serif" font-size="14.00"> </text>
<text text-anchor="start" x="199" y="-522.3" font-family="Helvetica,sans-Serif" font-size="14.00">bool not null</text>
<polygon fill="none" stroke="#888888" points="8,-516 8,-689 334,-689 334,-516 8,-516"/>
</g>
<!-- complete_moabs_47690420&#45;&gt;preserved_objects_37017e83 -->
<g id="edge3" class="edge">
<title>complete_moabs_47690420:w&#45;&gt;preserved_objects_37017e83:e</title>
<path fill="none" stroke="black" d="M372.88,-652.48C362.29,-654.17 355.58,-657.56 344.24,-658.92"/>
<polygon fill="black" stroke="black" points="384.63,-646.59 385.38,-656.56 383.38,-656.71 382.64,-646.74 384.63,-646.59"/>
<polyline fill="none" stroke="black" points="386,-651.5 381.01,-651.87 "/>
<ellipse fill="none" stroke="black" cx="377.03" cy="-652.17" rx="4" ry="4"/>
<polygon fill="black" stroke="black" points="335.28,-664.44 334.72,-654.45 336.71,-654.34 337.28,-664.32 335.28,-664.44"/>
<polyline fill="none" stroke="black" points="334,-659.5 338.99,-659.22 "/>
<polygon fill="black" stroke="black" points="340.27,-664.15 339.71,-654.17 341.7,-654.06 342.27,-664.04 340.27,-664.15"/>
<polyline fill="none" stroke="black" points="338.99,-659.22 343.98,-658.93 "/>
</g>
<!-- zipped_moab_versions_45586cfc -->
<g id="node5" class="node">
<title>zipped_moab_versions_45586cfc</title>
<polygon fill="#e9c2f2" stroke="transparent" points="400,-385.5 400,-404.5 579,-404.5 579,-385.5 400,-385.5"/>
<text text-anchor="start" x="402" y="-392.3" font-family="Helvetica,sans-Serif" font-weight="bold" font-style="italic" font-size="14.00">zipped_moab_versions</text>
<polygon fill="#e9c2f2" stroke="transparent" points="579,-385.5 579,-404.5 715,-404.5 715,-385.5 579,-385.5"/>
<text text-anchor="start" x="667" y="-391.3" font-family="Helvetica,sans-Serif" font-size="14.00">[table]</text>
<text text-anchor="start" x="402" y="-373.3" font-family="Helvetica,sans-Serif" font-weight="bold" font-style="italic" font-size="14.00">id</text>
<text text-anchor="start" x="558" y="-372.3" font-family="Helvetica,sans-Serif" font-size="14.00"> </text>
<text text-anchor="start" x="581" y="-372.3" font-family="Helvetica,sans-Serif" font-size="14.00">bigserial not null</text>
<text text-anchor="start" x="558" y="-353.3" font-family="Helvetica,sans-Serif" font-size="14.00"> </text>
<text text-anchor="start" x="581" y="-353.3" font-family="Helvetica,sans-Serif" font-size="14.00">auto&#45;incremented</text>
<text text-anchor="start" x="402" y="-334.3" font-family="Helvetica,sans-Serif" font-size="14.00">version</text>
<text text-anchor="start" x="558" y="-334.3" font-family="Helvetica,sans-Serif" font-size="14.00"> </text>
<text text-anchor="start" x="581" y="-334.3" font-family="Helvetica,sans-Serif" font-size="14.00">int4 not null</text>
<text text-anchor="start" x="402" y="-315.3" font-family="Helvetica,sans-Serif" font-size="14.00">zip_endpoint_id</text>
<text text-anchor="start" x="558" y="-315.3" font-family="Helvetica,sans-Serif" font-size="14.00"> </text>
<text text-anchor="start" x="581" y="-315.3" font-family="Helvetica,sans-Serif" font-size="14.00">int8 not null</text>
<text text-anchor="start" x="402" y="-296.3" font-family="Helvetica,sans-Serif" font-size="14.00">created_at</text>
<text text-anchor="start" x="558" y="-296.3" font-family="Helvetica,sans-Serif" font-size="14.00"> </text>
<text text-anchor="start" x="581" y="-296.3" font-family="Helvetica,sans-Serif" font-size="14.00">timestamp not null</text>
<text text-anchor="start" x="402" y="-277.3" font-family="Helvetica,sans-Serif" font-size="14.00">updated_at</text>
<text text-anchor="start" x="558" y="-277.3" font-family="Helvetica,sans-Serif" font-size="14.00"> </text>
<text text-anchor="start" x="581" y="-277.3" font-family="Helvetica,sans-Serif" font-size="14.00">timestamp not null</text>
<text text-anchor="start" x="402" y="-258.3" font-family="Helvetica,sans-Serif" font-size="14.00">preserved_object_id</text>
<text text-anchor="start" x="558" y="-258.3" font-family="Helvetica,sans-Serif" font-size="14.00"> </text>
<text text-anchor="start" x="581" y="-258.3" font-family="Helvetica,sans-Serif" font-size="14.00">int8 not null</text>
<polygon fill="none" stroke="#888888" points="398.5,-251.5 398.5,-405.5 715.5,-405.5 715.5,-251.5 398.5,-251.5"/>
</g>
<!-- zipped_moab_versions_45586cfc&#45;&gt;preserved_objects_37017e83 -->
<g id="edge4" class="edge">
<title>zipped_moab_versions_45586cfc:w&#45;&gt;preserved_objects_37017e83:e</title>
<path fill="none" stroke="black" d="M381.89,-268.08C328.13,-317.5 408.9,-629.56 344.13,-657.5"/>
<polygon fill="black" stroke="black" points="389.67,-265.09 400.61,-265.7 394.33,-263.29 399,-261.5 399,-261.5 399,-261.5 394.33,-263.29 397.39,-257.3 389.67,-265.09 389.67,-265.09"/>
<ellipse fill="none" stroke="black" cx="385.93" cy="-266.52" rx="4" ry="4"/>
<polygon fill="black" stroke="black" points="335.95,-664.21 334.01,-654.4 335.98,-654.01 337.91,-663.82 335.95,-664.21"/>
<polyline fill="none" stroke="black" points="334,-659.5 338.91,-658.53 "/>
<polygon fill="black" stroke="black" points="340.85,-663.24 338.92,-653.43 340.88,-653.05 342.82,-662.86 340.85,-663.24"/>
<polyline fill="none" stroke="black" points="338.91,-658.53 343.81,-657.56 "/>
</g>
<!-- zip_endpoints_20b2c0f6 -->
<g id="node7" class="node">
<title>zip_endpoints_20b2c0f6</title>
<polygon fill="#e9c2f2" stroke="transparent" points="40,-308.5 40,-327.5 167,-327.5 167,-308.5 40,-308.5"/>
<text text-anchor="start" x="42" y="-315.3" font-family="Helvetica,sans-Serif" font-weight="bold" font-style="italic" font-size="14.00">zip_endpoints</text>
<polygon fill="#e9c2f2" stroke="transparent" points="167,-308.5 167,-327.5 303,-327.5 303,-308.5 167,-308.5"/>
<text text-anchor="start" x="255" y="-314.3" font-family="Helvetica,sans-Serif" font-size="14.00">[table]</text>
<text text-anchor="start" x="42" y="-296.3" font-family="Helvetica,sans-Serif" font-weight="bold" font-style="italic" font-size="14.00">id</text>
<text text-anchor="start" x="160" y="-295.3" font-family="Helvetica,sans-Serif" font-size="14.00"> </text>
<text text-anchor="start" x="169" y="-295.3" font-family="Helvetica,sans-Serif" font-size="14.00">bigserial not null</text>
<text text-anchor="start" x="160" y="-276.3" font-family="Helvetica,sans-Serif" font-size="14.00"> </text>
<text text-anchor="start" x="169" y="-276.3" font-family="Helvetica,sans-Serif" font-size="14.00">auto&#45;incremented</text>
<text text-anchor="start" x="42" y="-257.3" font-family="Helvetica,sans-Serif" font-size="14.00">endpoint_name</text>
<text text-anchor="start" x="160" y="-257.3" font-family="Helvetica,sans-Serif" font-size="14.00"> </text>
<text text-anchor="start" x="169" y="-257.3" font-family="Helvetica,sans-Serif" font-size="14.00">varchar not null</text>
<text text-anchor="start" x="42" y="-238.3" font-family="Helvetica,sans-Serif" font-size="14.00">delivery_class</text>
<text text-anchor="start" x="160" y="-238.3" font-family="Helvetica,sans-Serif" font-size="14.00"> </text>
<text text-anchor="start" x="169" y="-238.3" font-family="Helvetica,sans-Serif" font-size="14.00">int4 not null</text>
<text text-anchor="start" x="42" y="-219.3" font-family="Helvetica,sans-Serif" font-size="14.00">endpoint_node</text>
<text text-anchor="start" x="160" y="-219.3" font-family="Helvetica,sans-Serif" font-size="14.00"> </text>
<text text-anchor="start" x="169" y="-219.3" font-family="Helvetica,sans-Serif" font-size="14.00">varchar</text>
<text text-anchor="start" x="42" y="-200.3" font-family="Helvetica,sans-Serif" font-size="14.00">storage_location</text>
<text text-anchor="start" x="160" y="-200.3" font-family="Helvetica,sans-Serif" font-size="14.00"> </text>
<text text-anchor="start" x="169" y="-200.3" font-family="Helvetica,sans-Serif" font-size="14.00">varchar</text>
<text text-anchor="start" x="42" y="-181.3" font-family="Helvetica,sans-Serif" font-size="14.00">created_at</text>
<text text-anchor="start" x="160" y="-181.3" font-family="Helvetica,sans-Serif" font-size="14.00"> </text>
<text text-anchor="start" x="169" y="-181.3" font-family="Helvetica,sans-Serif" font-size="14.00">timestamp not null</text>
<text text-anchor="start" x="42" y="-162.3" font-family="Helvetica,sans-Serif" font-size="14.00">updated_at</text>
<text text-anchor="start" x="160" y="-162.3" font-family="Helvetica,sans-Serif" font-size="14.00"> </text>
<text text-anchor="start" x="169" y="-162.3" font-family="Helvetica,sans-Serif" font-size="14.00">timestamp not null</text>
<polygon fill="none" stroke="#888888" points="38.5,-156 38.5,-329 303.5,-329 303.5,-156 38.5,-156"/>
</g>
<!-- zipped_moab_versions_45586cfc&#45;&gt;zip_endpoints_20b2c0f6 -->
<g id="edge5" class="edge">
<title>zipped_moab_versions_45586cfc:w&#45;&gt;zip_endpoints_20b2c0f6:e</title>
<path fill="none" stroke="black" d="M380.66,-317.19C355.11,-313.34 342.78,-302.13 314.31,-299.89"/>
<polygon fill="black" stroke="black" points="389.03,-317.79 398.68,-322.99 394.01,-318.14 399,-318.5 399,-318.5 399,-318.5 394.01,-318.14 399.32,-314.01 389.03,-317.79 389.03,-317.79"/>
<ellipse fill="none" stroke="black" cx="385.04" cy="-317.51" rx="4" ry="4"/>
<polygon fill="black" stroke="black" points="304.81,-304.53 305.19,-294.54 307.19,-294.62 306.81,-304.61 304.81,-304.53"/>
<polyline fill="none" stroke="black" points="304,-299.5 309,-299.69 "/>
<polygon fill="black" stroke="black" points="309.81,-304.72 310.19,-294.73 312.18,-294.81 311.8,-304.8 309.81,-304.72"/>
<polyline fill="none" stroke="black" points="309,-299.69 313.99,-299.88 "/>
</g>
<!-- schema_migrations_99dc56d9 -->
<g id="node6" class="node">
<title>schema_migrations_99dc56d9</title>
<polygon fill="#e9c2f2" stroke="transparent" points="810,-508.5 810,-527.5 965,-527.5 965,-508.5 810,-508.5"/>
<text text-anchor="start" x="812" y="-515.3" font-family="Helvetica,sans-Serif" font-weight="bold" font-style="italic" font-size="14.00">schema_migrations</text>
<polygon fill="#e9c2f2" stroke="transparent" points="965,-508.5 965,-527.5 1079,-527.5 1079,-508.5 965,-508.5"/>
<text text-anchor="start" x="1031" y="-514.3" font-family="Helvetica,sans-Serif" font-size="14.00">[table]</text>
<text text-anchor="start" x="812" y="-496.3" font-family="Helvetica,sans-Serif" font-weight="bold" font-style="italic" font-size="14.00">version</text>
<text text-anchor="start" x="916" y="-495.3" font-family="Helvetica,sans-Serif" font-size="14.00"> </text>
<text text-anchor="start" x="967" y="-495.3" font-family="Helvetica,sans-Serif" font-size="14.00">varchar not null</text>
<polygon fill="none" stroke="#888888" points="808.5,-488.5 808.5,-528.5 1079.5,-528.5 1079.5,-488.5 808.5,-488.5"/>
</g>
<!-- zip_parts_31fc758 -->
<g id="node8" class="node">
<title>zip_parts_31fc758</title>
<polygon fill="#e9c2f2" stroke="transparent" points="781,-442.5 781,-461.5 971,-461.5 971,-442.5 781,-442.5"/>
<text text-anchor="start" x="783" y="-449.3" font-family="Helvetica,sans-Serif" font-weight="bold" font-style="italic" font-size="14.00">zip_parts</text>
<polygon fill="#e9c2f2" stroke="transparent" points="971,-442.5 971,-461.5 1107,-461.5 1107,-442.5 971,-442.5"/>
<text text-anchor="start" x="1059" y="-448.3" font-family="Helvetica,sans-Serif" font-size="14.00">[table]</text>
<text text-anchor="start" x="783" y="-430.3" font-family="Helvetica,sans-Serif" font-weight="bold" font-style="italic" font-size="14.00">id</text>
<text text-anchor="start" x="964" y="-429.3" font-family="Helvetica,sans-Serif" font-size="14.00"> </text>
<text text-anchor="start" x="973" y="-429.3" font-family="Helvetica,sans-Serif" font-size="14.00">bigserial not null</text>
<text text-anchor="start" x="964" y="-410.3" font-family="Helvetica,sans-Serif" font-size="14.00"> </text>
<text text-anchor="start" x="973" y="-410.3" font-family="Helvetica,sans-Serif" font-size="14.00">auto&#45;incremented</text>
<text text-anchor="start" x="783" y="-391.3" font-family="Helvetica,sans-Serif" font-size="14.00">size</text>
<text text-anchor="start" x="964" y="-391.3" font-family="Helvetica,sans-Serif" font-size="14.00"> </text>
<text text-anchor="start" x="973" y="-391.3" font-family="Helvetica,sans-Serif" font-size="14.00">int8</text>
<text text-anchor="start" x="783" y="-372.3" font-family="Helvetica,sans-Serif" font-size="14.00">zipped_moab_version_id</text>
<text text-anchor="start" x="964" y="-372.3" font-family="Helvetica,sans-Serif" font-size="14.00"> </text>
<text text-anchor="start" x="973" y="-372.3" font-family="Helvetica,sans-Serif" font-size="14.00">int8 not null</text>
<text text-anchor="start" x="783" y="-353.3" font-family="Helvetica,sans-Serif" font-size="14.00">created_at</text>
<text text-anchor="start" x="964" y="-353.3" font-family="Helvetica,sans-Serif" font-size="14.00"> </text>
<text text-anchor="start" x="973" y="-353.3" font-family="Helvetica,sans-Serif" font-size="14.00">timestamp not null</text>
<text text-anchor="start" x="783" y="-334.3" font-family="Helvetica,sans-Serif" font-size="14.00">updated_at</text>
<text text-anchor="start" x="964" y="-334.3" font-family="Helvetica,sans-Serif" font-size="14.00"> </text>
<text text-anchor="start" x="973" y="-334.3" font-family="Helvetica,sans-Serif" font-size="14.00">timestamp not null</text>
<text text-anchor="start" x="783" y="-315.3" font-family="Helvetica,sans-Serif" font-size="14.00">md5</text>
<text text-anchor="start" x="964" y="-315.3" font-family="Helvetica,sans-Serif" font-size="14.00"> </text>
<text text-anchor="start" x="973" y="-315.3" font-family="Helvetica,sans-Serif" font-size="14.00">varchar not null</text>
<text text-anchor="start" x="783" y="-296.3" font-family="Helvetica,sans-Serif" font-size="14.00">create_info</text>
<text text-anchor="start" x="964" y="-296.3" font-family="Helvetica,sans-Serif" font-size="14.00"> </text>
<text text-anchor="start" x="973" y="-296.3" font-family="Helvetica,sans-Serif" font-size="14.00">varchar not null</text>
<text text-anchor="start" x="783" y="-277.3" font-family="Helvetica,sans-Serif" font-size="14.00">parts_count</text>
<text text-anchor="start" x="964" y="-277.3" font-family="Helvetica,sans-Serif" font-size="14.00"> </text>
<text text-anchor="start" x="973" y="-277.3" font-family="Helvetica,sans-Serif" font-size="14.00">int4 not null</text>
<text text-anchor="start" x="783" y="-258.3" font-family="Helvetica,sans-Serif" font-size="14.00">suffix</text>
<text text-anchor="start" x="964" y="-258.3" font-family="Helvetica,sans-Serif" font-size="14.00"> </text>
<text text-anchor="start" x="973" y="-258.3" font-family="Helvetica,sans-Serif" font-size="14.00">varchar not null</text>
<text text-anchor="start" x="783" y="-239.3" font-family="Helvetica,sans-Serif" font-size="14.00">status</text>
<text text-anchor="start" x="964" y="-239.3" font-family="Helvetica,sans-Serif" font-size="14.00"> </text>
<text text-anchor="start" x="973" y="-239.3" font-family="Helvetica,sans-Serif" font-size="14.00">int4 not null</text>
<text text-anchor="start" x="783" y="-220.3" font-family="Helvetica,sans-Serif" font-size="14.00">last_existence_check</text>
<text text-anchor="start" x="964" y="-220.3" font-family="Helvetica,sans-Serif" font-size="14.00"> </text>
<text text-anchor="start" x="973" y="-220.3" font-family="Helvetica,sans-Serif" font-size="14.00">timestamp</text>
<text text-anchor="start" x="783" y="-201.3" font-family="Helvetica,sans-Serif" font-size="14.00">last_checksum_validation</text>
<text text-anchor="start" x="964" y="-201.3" font-family="Helvetica,sans-Serif" font-size="14.00"> </text>
<text text-anchor="start" x="973" y="-201.3" font-family="Helvetica,sans-Serif" font-size="14.00">timestamp</text>
<polygon fill="none" stroke="#888888" points="780,-194.5 780,-462.5 1108,-462.5 1108,-194.5 780,-194.5"/>
</g>
<!-- zip_parts_31fc758&#45;&gt;zipped_moab_versions_45586cfc -->
<g id="edge6" class="edge">
<title>zip_parts_31fc758:w&#45;&gt;zipped_moab_versions_45586cfc:e</title>
<path fill="none" stroke="black" d="M761.52,-376.5C749.18,-376.5 740.66,-376.5 726.34,-376.5"/>
<polygon fill="black" stroke="black" points="770,-376.5 780,-381 775,-376.5 780,-376.5 780,-376.5 780,-376.5 775,-376.5 780,-372 770,-376.5 770,-376.5"/>
<ellipse fill="none" stroke="black" cx="766" cy="-376.5" rx="4" ry="4"/>
<polygon fill="black" stroke="black" points="717,-381.5 717,-371.5 719,-371.5 719,-381.5 717,-381.5"/>
<polyline fill="none" stroke="black" points="716,-376.5 721,-376.5 "/>
<polygon fill="black" stroke="black" points="722,-381.5 722,-371.5 724,-371.5 724,-381.5 722,-381.5"/>
<polyline fill="none" stroke="black" points="721,-376.5 726,-376.5 "/>
</g>
</g>
</svg>
